<svg width="216" height="96" viewBox="0 0 216 96" fill="none" xmlns="http://www.w3.org/2000/svg">
<g clip-path="url(#clip0_7158_1954)">
<path fill-rule="evenodd" clip-rule="evenodd" d="M44.1101 0.661876C52.1031 -1.1101 63.4065 0.214049 64.0115 10.406C64.5954 20.1638 55.6554 26.777 47.3845 29.6531L46.1814 22.2146C49.3483 19.9227 52.737 17.4957 54.7009 14.0369C59.5978 5.43201 51.7542 3.25417 44.8933 6.36403C34.5863 11.04 24.9126 26.9768 21.0476 37.2478C18.4706 44.0807 14.4362 58.9146 23.1257 62.9148C35.7667 68.7438 51.9459 50.3019 57.6609 40.7429C60.7569 35.568 62.6719 29.86 64.7859 24.2371C66.4089 24.3941 68.0463 24.4858 69.6833 24.4148C70.1825 24.3936 73.8262 23.7322 73.8542 24.322C71.4623 28.984 68.8642 33.7319 67.0642 38.6638C66.3312 40.6638 64.3242 45.7823 66.4802 47.2693C68.3092 48.5289 70.7723 46.0586 71.8972 44.7556C76.331 39.5806 78.6088 32.2994 81.0007 26.0505C81.9476 23.5809 81.8843 24.3638 84.1042 24.4138C86.2111 24.4638 88.2249 24.0582 90.1677 24.0652C90.4947 24.0652 90.858 24.0081 91.072 24.3211C88.737 29.154 85.9972 33.8522 84.2322 38.9412C83.7554 40.3104 82.5722 43.6871 82.9792 45.8181C84.0327 49.0301 87.4959 47.3144 89.3044 45.7957C94.749 41.2187 96.037 32.8632 98.3288 26.4714C100.578 20.2074 106.073 7.73735 111.974 4.39235C115.753 2.25045 121.298 2.69805 122.074 7.79371C123.462 16.8406 113.07 27.4821 105.974 31.8172C105.468 32.1301 104.799 32.1591 104.479 32.7849C103.774 36.1869 102.336 40.0239 102.251 43.4968C102.173 46.5508 103.603 48.9711 106.935 47.3621C111.547 45.1269 117.64 33.8951 119.939 29.2332C120.544 28.0092 121.377 25.4543 122.103 24.5213C122.537 23.9664 123.206 24.4073 123.797 24.4295C126.465 24.5145 129.099 24.2655 131.754 24.0945C131.768 24.3293 131.768 24.5571 131.712 24.7839C131.434 25.88 130.324 27.7745 129.875 29.0125C128.295 33.3545 126.075 41.4247 126.722 45.9236C127.185 49.1695 130.252 47.9808 132.003 46.5359C133.228 45.525 137.554 40.459 137.626 39.0554C137.085 37.7174 136.359 35.7809 136.338 34.3289C136.324 33.2468 136.908 30.5916 137.306 29.5457C138.46 26.5277 142.125 22.108 145.741 23.6306C149.67 25.2896 147.285 32.2289 145.997 35.1189C145.463 36.3079 144.815 37.539 144.075 38.614C143.99 39.148 145.541 39.4542 145.94 39.4822C147.421 39.5961 149.698 38.7766 150.851 37.8377C151.855 37.0266 152.068 35.6736 152.673 34.5847C155.72 29.0967 161.642 23.9509 168.226 23.9509C179.344 23.9511 179.358 35.596 171.201 40.4929C168.219 42.2868 164.624 42.8852 161.222 42.0593C160.282 41.8313 159.065 40.7073 159.115 42.3513C159.215 45.8172 161.934 48.2019 165.272 48.4939C174.76 49.3128 180.881 39.5037 184.504 32.1658C184.539 31.8167 183.23 30.9415 182.896 30.5496C179.331 26.4065 184.725 18.1014 189.536 19.8162C192.191 20.7632 191.529 23.7308 190.789 25.8298C190.298 27.2318 189.38 27.602 191.843 27.823C193.743 27.9939 196.15 27.453 197.886 26.698C198.292 26.5198 199.181 25.8153 199.487 25.8943L202.697 30.2566L202.64 30.6199C200.462 33.7519 197.893 36.9484 196.462 40.5144C195.515 42.8777 194.021 48.5139 198.362 47.824C202.235 47.205 203.694 38.6921 206.911 37.3679C212.271 35.154 215.111 43.2825 215.346 47.2547C216.335 64.1306 197.886 71.6055 184.077 73.5125C165.614 76.0744 165.951 75.2276 147.289 76.0886C127.159 77.0206 99.3575 79.5342 83.0085 92.1609C82.4885 92.5599 79.8477 94.9872 79.6267 95.0222C79.428 95.0511 79.3777 95.001 79.3347 94.8162C73.3277 85.4562 65.3412 77.264 56.9353 70.032C55.6323 68.907 54.1088 67.9964 52.9988 66.6804H177.408C187.536 66.0684 200.341 65.1283 207.395 56.8504C210.456 53.2634 213.139 45.775 210.299 41.49C208.1 38.1595 206.592 43.1913 205.759 44.7293C204.122 47.7473 201.914 51.413 199.281 53.655C191.373 60.381 183.828 55.3275 186.54 45.3416C187.551 41.6267 190.121 37.8043 192.554 34.8504C192.903 34.4234 193.608 33.918 193.942 33.405C194.056 33.234 194.341 32.8144 193.949 32.7644C193.608 32.7144 192.191 33.0774 191.665 33.0994C190.277 33.1564 188.86 33.0988 187.479 32.9988C186.155 35.1768 185.166 37.5264 183.878 39.7254C180.803 44.9712 175.735 51.7748 170.311 54.6648C162.019 59.0848 150.894 56.281 150.118 45.782C150.026 44.5582 150.189 43.3123 150.196 42.0955C147.292 43.4974 144.559 43.8532 141.456 42.7713C139.477 45.9461 137.228 49.056 134.53 51.6609C129.434 56.5859 120.451 60.5716 118.672 50.5076C117.875 46.0089 118.7 41.4902 119.305 37.0134C118.949 36.9354 118.935 37.1844 118.786 37.3904C114.892 42.7783 112.273 48.7783 107.013 53.3132C100.187 59.1992 92.6918 57.5549 93.0828 47.5759C93.1048 47.113 93.5098 46.5512 92.9978 46.1882C90.2276 50.2489 85.2251 57.0237 79.6199 56.7136C74.6314 56.6762 73.3054 51.8864 74.0398 47.3406C73.4422 47.192 73.3708 47.9247 73.029 48.3797C70.125 52.2307 65.1917 58.4374 59.6687 56.2244C58.5299 55.7684 57.4985 54.5943 57.0144 53.4695C56.9144 53.2276 56.3381 51.3136 56.3376 51.1912V48.8142L56.3103 48.8211C55.0003 50.3301 54.054 52.1883 52.908 53.8533C45.3059 64.8792 33.3479 76.9356 18.572 74.3377C7.88818 72.4586 3.41138 64.0952 3.85229 53.8103C4.72029 33.7813 23.7461 5.18188 44.1101 0.661876ZM170.511 28.5642C169.158 27.2692 166.61 28.3147 165.329 29.2547C162.688 31.1976 160.46 35.1627 159.748 38.3367C163.756 38.9557 168.162 37.2551 170.212 33.6394C170.923 32.3865 171.685 29.6824 170.511 28.5642ZM117.746 8.23512C117.17 7.55918 116.351 7.92239 115.746 8.34938C114.159 9.48175 111.789 14.0654 110.885 15.9373C109.085 19.6601 107.611 23.7017 106.486 27.6736C106.6 27.7945 107.482 27.07 107.632 26.9412C111.248 23.8802 115.248 18.428 117.006 14.0291C117.526 12.7271 118.729 9.38833 117.746 8.22828V8.23512Z" fill="#042017"/>
<path d="M119.702 93.1024C117.974 93.1024 116.5 91.9926 116.5 89.8458C116.5 87.699 118.001 86.5892 119.702 86.5892C121.294 86.5892 122.404 87.4443 122.586 88.7633L121.158 89.0635C121.012 88.2994 120.43 87.8173 119.693 87.8173C118.729 87.8173 117.947 88.5177 117.947 89.8458C117.947 91.1739 118.72 91.8653 119.693 91.8653C120.439 91.8653 120.976 91.4377 121.122 90.7555L122.568 91.083C122.268 92.3474 121.203 93.1024 119.702 93.1024ZM128.102 88.545L127.402 90.519H128.803L128.102 88.545ZM125.01 93.0297L127.42 86.662H128.776L131.186 93.0297H129.704L129.24 91.7197H126.965L126.501 93.0297H125.01ZM134.052 93.0297V86.662H135.48L137.954 90.7555V86.662H139.292V93.0297H137.863L135.389 88.9361V93.0297H134.052ZM142.745 93.0297V86.662H144.173L146.647 90.7555V86.662H147.984V93.0297H146.556L144.082 88.9361V93.0297H142.745ZM154.012 88.545L153.311 90.519H154.712L154.012 88.545ZM150.919 93.0297L153.329 86.662H154.685L157.095 93.0297H155.613L155.149 91.7197H152.875L152.411 93.0297H150.919ZM159.961 93.0297V86.662H162.554C163.7 86.662 164.582 87.2351 164.582 88.2994C164.582 88.8998 164.209 89.3546 163.845 89.5547C164.418 89.7821 164.91 90.3007 164.91 91.1285C164.91 92.3383 163.964 93.0297 162.617 93.0297H159.961ZM161.398 91.7925H162.499C163.236 91.7925 163.554 91.5378 163.554 91.0466C163.554 90.5463 163.236 90.2734 162.499 90.2734H161.398V91.7925ZM161.398 89.0726H162.435C163.009 89.0726 163.263 88.827 163.263 88.4358C163.263 88.0356 163.009 87.79 162.408 87.79H161.398V89.0726ZM168.067 93.0297V86.662H169.505V93.0297H168.067ZM175.077 93.1024C173.804 93.1024 172.731 92.2382 172.612 91.0739L173.868 90.7009C173.949 91.4104 174.504 91.8835 175.132 91.8835C175.705 91.8835 176.078 91.6106 176.078 91.2103C176.078 90.0096 172.812 90.7191 172.812 88.3812C172.812 87.3351 173.813 86.5892 175.059 86.5892C176.287 86.5892 177.279 87.2442 177.497 88.2175L176.215 88.7542C176.087 88.1811 175.66 87.8082 175.059 87.8082C174.559 87.8082 174.25 88.0174 174.25 88.3722C174.25 89.3819 177.524 88.5723 177.524 91.1739C177.524 92.3292 176.542 93.1024 175.077 93.1024ZM188.076 93.1024C186.347 93.1024 184.873 91.9926 184.873 89.8458C184.873 87.699 186.374 86.5892 188.076 86.5892C189.667 86.5892 190.777 87.4443 190.959 88.7633L189.531 89.0635C189.385 88.2994 188.803 87.8173 188.066 87.8173C187.102 87.8173 186.32 88.5177 186.32 89.8458C186.32 91.1739 187.093 91.8653 188.066 91.8653C188.812 91.8653 189.349 91.4377 189.495 90.7555L190.941 91.083C190.641 92.3474 189.576 93.1024 188.076 93.1024ZM194.008 93.0297V86.662H195.445V91.7925H198.301V93.0297H194.008ZM203.56 93.1024C202.05 93.1024 201.004 92.2928 201.004 90.6645V86.662H202.341V90.6554C202.341 91.4832 202.85 91.8562 203.56 91.8562C204.269 91.8562 204.779 91.4832 204.779 90.6554V86.662H206.116V90.6645C206.116 92.2928 205.07 93.1024 203.56 93.1024ZM209.572 93.0297V86.662H212.165C213.311 86.662 214.193 87.2351 214.193 88.2994C214.193 88.8998 213.82 89.3546 213.456 89.5547C214.029 89.7821 214.521 90.3007 214.521 91.1285C214.521 92.3383 213.575 93.0297 212.228 93.0297H209.572ZM211.009 91.7925H212.11C212.847 91.7925 213.165 91.5378 213.165 91.0466C213.165 90.5463 212.847 90.2734 212.11 90.2734H211.009V91.7925ZM211.009 89.0726H212.046C212.619 89.0726 212.874 88.827 212.874 88.4358C212.874 88.0356 212.619 87.79 212.019 87.79H211.009V89.0726Z" fill="#042017"/>
</g>
<defs>
<clipPath id="clip0_7158_1954">
<rect width="216" height="96" fill="white"/>
</clipPath>
</defs>
</svg>
