<svg width="80" height="109" viewBox="0 0 80 109" fill="none" xmlns="http://www.w3.org/2000/svg">
<path d="M36.5057 26.3339H45.0091C45.0091 26.3339 46.8313 26.3339 46.8313 28.156C46.8313 28.156 46.8313 29.9782 45.0091 29.9782H36.5057C36.5057 29.9782 34.6836 29.9782 34.6836 28.156C34.6836 28.156 34.6836 26.3339 36.5057 26.3339Z" stroke="black" stroke-width="1.91176" stroke-linecap="round" stroke-linejoin="round"/>
<path d="M48.0456 45.3243C48.0456 44.1686 47.7702 43.0295 47.242 42.0015C46.7139 40.9735 45.9482 40.0862 45.0087 39.4132V29.9781H36.5053V39.4132C35.5658 40.0865 34.8003 40.9739 34.2723 42.0019C33.7442 43.03 33.4688 44.1691 33.4688 45.3249C33.4688 46.4807 33.7442 47.6198 34.2723 48.6479C34.8003 49.6759 35.5658 50.5634 36.5053 51.2366V53.6661H45.0087V51.2366C45.9483 50.5633 46.7139 49.6758 47.242 48.6477C47.7702 47.6195 48.0456 46.4802 48.0456 45.3243Z" stroke="black" stroke-width="1.91176" stroke-linecap="round" stroke-linejoin="round"/>
<path d="M34.6836 53.6661H46.8313" stroke="black" stroke-width="1.91176" stroke-linecap="round" stroke-linejoin="round"/>
<path d="M34.3808 41.7456L31.0645 39.259" stroke="black" stroke-width="1.91176" stroke-linecap="round" stroke-linejoin="round"/>
<path d="M32.2344 37.6968L30.043 40.6196" stroke="black" stroke-width="1.91176" stroke-linecap="round" stroke-linejoin="round"/>
<path d="M2.57422 107H0.761719L3.52344 99H5.70313L8.46094 107H6.64844L4.64453 100.828H4.58203L2.57422 107ZM2.46094 103.855H6.74219V105.176H2.46094V103.855ZM16.1064 101.801H14.3955C14.3643 101.579 14.3005 101.383 14.2041 101.211C14.1077 101.036 13.984 100.888 13.833 100.766C13.682 100.643 13.5075 100.549 13.3096 100.484C13.1143 100.419 12.902 100.387 12.6729 100.387C12.2588 100.387 11.8981 100.49 11.5908 100.695C11.2835 100.898 11.0452 101.195 10.876 101.586C10.7067 101.974 10.6221 102.445 10.6221 103C10.6221 103.57 10.7067 104.049 10.876 104.437C11.0479 104.826 11.2874 105.118 11.5947 105.316C11.902 105.514 12.2575 105.613 12.6611 105.613C12.8877 105.613 13.0973 105.583 13.29 105.523C13.4854 105.464 13.6585 105.376 13.8096 105.262C13.9606 105.145 14.0856 105.003 14.1846 104.836C14.2861 104.669 14.3564 104.479 14.3955 104.266L16.1064 104.273C16.0622 104.641 15.9515 104.995 15.7744 105.336C15.5999 105.674 15.3643 105.978 15.0674 106.246C14.7731 106.512 14.4215 106.723 14.0127 106.879C13.6064 107.033 13.1468 107.109 12.6338 107.109C11.9202 107.109 11.2822 106.948 10.7197 106.625C10.1598 106.302 9.71712 105.835 9.3916 105.223C9.06868 104.611 8.90723 103.87 8.90723 103C8.90723 102.128 9.07129 101.385 9.39941 100.773C9.72754 100.161 10.1729 99.6953 10.7354 99.375C11.2979 99.0521 11.9307 98.8906 12.6338 98.8906C13.0973 98.8906 13.527 98.9557 13.9229 99.0859C14.3213 99.2161 14.6742 99.4062 14.9814 99.6562C15.2887 99.9036 15.5387 100.207 15.7314 100.566C15.9268 100.926 16.0518 101.337 16.1064 101.801ZM24.3779 101.801H22.667C22.6357 101.579 22.5719 101.383 22.4756 101.211C22.3792 101.036 22.2555 100.888 22.1045 100.766C21.9535 100.643 21.779 100.549 21.5811 100.484C21.3857 100.419 21.1735 100.387 20.9443 100.387C20.5303 100.387 20.1696 100.49 19.8623 100.695C19.555 100.898 19.3167 101.195 19.1475 101.586C18.9782 101.974 18.8936 102.445 18.8936 103C18.8936 103.57 18.9782 104.049 19.1475 104.437C19.3193 104.826 19.5589 105.118 19.8662 105.316C20.1735 105.514 20.529 105.613 20.9326 105.613C21.1592 105.613 21.3688 105.583 21.5615 105.523C21.7568 105.464 21.93 105.376 22.0811 105.262C22.2321 105.145 22.3571 105.003 22.4561 104.836C22.5576 104.669 22.6279 104.479 22.667 104.266L24.3779 104.273C24.3337 104.641 24.223 104.995 24.0459 105.336C23.8714 105.674 23.6357 105.978 23.3389 106.246C23.0446 106.512 22.693 106.723 22.2842 106.879C21.8779 107.033 21.4183 107.109 20.9053 107.109C20.1917 107.109 19.5537 106.948 18.9912 106.625C18.4313 106.302 17.9886 105.835 17.6631 105.223C17.3402 104.611 17.1787 103.87 17.1787 103C17.1787 102.128 17.3428 101.385 17.6709 100.773C17.999 100.161 18.4443 99.6953 19.0068 99.375C19.5693 99.0521 20.2021 98.8906 20.9053 98.8906C21.3688 98.8906 21.7985 98.9557 22.1943 99.0859C22.5928 99.2161 22.9456 99.4062 23.2529 99.6562C23.5602 99.9036 23.8102 100.207 24.0029 100.566C24.1982 100.926 24.3232 101.337 24.3779 101.801ZM25.5908 107V99H30.9814V100.395H27.2822V102.301H30.7041V103.695H27.2822V105.605H30.9971V107H25.5908ZM36.666 101.301C36.6348 100.986 36.5007 100.741 36.2637 100.566C36.0267 100.392 35.7051 100.305 35.2988 100.305C35.0228 100.305 34.7897 100.344 34.5996 100.422C34.4095 100.497 34.2637 100.603 34.1621 100.738C34.0632 100.874 34.0137 101.027 34.0137 101.199C34.0085 101.342 34.0384 101.467 34.1035 101.574C34.1712 101.681 34.2637 101.773 34.3809 101.852C34.498 101.927 34.6335 101.993 34.7871 102.051C34.9408 102.105 35.1048 102.152 35.2793 102.191L35.998 102.363C36.347 102.441 36.6673 102.546 36.959 102.676C37.2507 102.806 37.5033 102.966 37.7168 103.156C37.9303 103.346 38.0957 103.57 38.2129 103.828C38.3327 104.086 38.3939 104.382 38.3965 104.715C38.3939 105.204 38.2689 105.629 38.0215 105.988C37.7767 106.345 37.4225 106.622 36.959 106.82C36.498 107.016 35.9421 107.113 35.291 107.113C34.6452 107.113 34.0827 107.014 33.6035 106.816C33.127 106.618 32.7546 106.326 32.4863 105.937C32.2207 105.547 32.0814 105.064 32.0684 104.488H33.7051C33.7233 104.757 33.8001 104.98 33.9355 105.16C34.0736 105.337 34.2572 105.471 34.4863 105.562C34.7181 105.651 34.9798 105.695 35.2715 105.695C35.5579 105.695 35.8066 105.654 36.0176 105.57C36.2311 105.487 36.3965 105.371 36.5137 105.223C36.6309 105.074 36.6895 104.904 36.6895 104.711C36.6895 104.531 36.6361 104.38 36.5293 104.258C36.4251 104.135 36.2715 104.031 36.0684 103.945C35.8678 103.859 35.6217 103.781 35.3301 103.711L34.459 103.492C33.7845 103.328 33.252 103.072 32.8613 102.723C32.4707 102.374 32.2767 101.904 32.2793 101.312C32.2767 100.828 32.4056 100.405 32.666 100.043C32.929 99.681 33.2897 99.3984 33.748 99.1953C34.2064 98.9922 34.7272 98.8906 35.3105 98.8906C35.9043 98.8906 36.4225 98.9922 36.8652 99.1953C37.3105 99.3984 37.6569 99.681 37.9043 100.043C38.1517 100.405 38.2793 100.824 38.2871 101.301H36.666ZM43.874 101.301C43.8428 100.986 43.7087 100.741 43.4717 100.566C43.2347 100.392 42.9131 100.305 42.5068 100.305C42.2308 100.305 41.9977 100.344 41.8076 100.422C41.6175 100.497 41.4717 100.603 41.3701 100.738C41.2712 100.874 41.2217 101.027 41.2217 101.199C41.2165 101.342 41.2464 101.467 41.3115 101.574C41.3792 101.681 41.4717 101.773 41.5889 101.852C41.7061 101.927 41.8415 101.993 41.9951 102.051C42.1488 102.105 42.3128 102.152 42.4873 102.191L43.2061 102.363C43.555 102.441 43.8753 102.546 44.167 102.676C44.4587 102.806 44.7113 102.966 44.9248 103.156C45.1383 103.346 45.3037 103.57 45.4209 103.828C45.5407 104.086 45.6019 104.382 45.6045 104.715C45.6019 105.204 45.4769 105.629 45.2295 105.988C44.9847 106.345 44.6305 106.622 44.167 106.82C43.7061 107.016 43.1501 107.113 42.499 107.113C41.8532 107.113 41.2907 107.014 40.8115 106.816C40.335 106.618 39.9626 106.326 39.6943 105.937C39.4287 105.547 39.2894 105.064 39.2764 104.488H40.9131C40.9313 104.757 41.0081 104.98 41.1436 105.16C41.2816 105.337 41.4652 105.471 41.6943 105.562C41.9261 105.651 42.1878 105.695 42.4795 105.695C42.766 105.695 43.0146 105.654 43.2256 105.57C43.4391 105.487 43.6045 105.371 43.7217 105.223C43.8389 105.074 43.8975 104.904 43.8975 104.711C43.8975 104.531 43.8441 104.38 43.7373 104.258C43.6331 104.135 43.4795 104.031 43.2764 103.945C43.0758 103.859 42.8298 103.781 42.5381 103.711L41.667 103.492C40.9925 103.328 40.46 103.072 40.0693 102.723C39.6787 102.374 39.4847 101.904 39.4873 101.312C39.4847 100.828 39.6136 100.405 39.874 100.043C40.137 99.681 40.4977 99.3984 40.9561 99.1953C41.4144 98.9922 41.9352 98.8906 42.5186 98.8906C43.1123 98.8906 43.6305 98.9922 44.0732 99.1953C44.5186 99.3984 44.8649 99.681 45.1123 100.043C45.3597 100.405 45.4873 100.824 45.4951 101.301H43.874ZM54.0938 103C54.0938 103.872 53.9284 104.615 53.5977 105.227C53.2695 105.839 52.8216 106.306 52.2539 106.629C51.6888 106.949 51.0534 107.109 50.3477 107.109C49.6367 107.109 48.9987 106.948 48.4336 106.625C47.8685 106.302 47.4219 105.835 47.0938 105.223C46.7656 104.611 46.6016 103.87 46.6016 103C46.6016 102.128 46.7656 101.385 47.0938 100.773C47.4219 100.161 47.8685 99.6953 48.4336 99.375C48.9987 99.0521 49.6367 98.8906 50.3477 98.8906C51.0534 98.8906 51.6888 99.0521 52.2539 99.375C52.8216 99.6953 53.2695 100.161 53.5977 100.773C53.9284 101.385 54.0938 102.128 54.0938 103ZM52.3789 103C52.3789 102.435 52.2943 101.958 52.125 101.57C51.9583 101.182 51.7227 100.888 51.418 100.688C51.1133 100.487 50.7565 100.387 50.3477 100.387C49.9388 100.387 49.582 100.487 49.2773 100.688C48.9727 100.888 48.7357 101.182 48.5664 101.57C48.3997 101.958 48.3164 102.435 48.3164 103C48.3164 103.565 48.3997 104.042 48.5664 104.43C48.7357 104.818 48.9727 105.112 49.2773 105.312C49.582 105.513 49.9388 105.613 50.3477 105.613C50.7565 105.613 51.1133 105.513 51.418 105.312C51.7227 105.112 51.9583 104.818 52.125 104.43C52.2943 104.042 52.3789 103.565 52.3789 103ZM55.3467 107V99H58.5029C59.1071 99 59.6227 99.1081 60.0498 99.3242C60.4795 99.5378 60.8063 99.8411 61.0303 100.234C61.2568 100.625 61.3701 101.085 61.3701 101.613C61.3701 102.145 61.2555 102.602 61.0264 102.984C60.7972 103.365 60.4652 103.656 60.0303 103.859C59.598 104.062 59.0745 104.164 58.46 104.164H56.3467V102.805H58.1865C58.5094 102.805 58.7777 102.76 58.9912 102.672C59.2048 102.583 59.3636 102.451 59.4678 102.273C59.5745 102.096 59.6279 101.876 59.6279 101.613C59.6279 101.348 59.5745 101.124 59.4678 100.941C59.3636 100.759 59.2035 100.621 58.9873 100.527C58.7738 100.431 58.5042 100.383 58.1787 100.383H57.0381V107H55.3467ZM59.667 103.359L61.6553 107H59.7881L57.8428 103.359H59.667ZM64.2568 99V107H62.5654V99H64.2568ZM65.6484 107V99H71.0391V100.395H67.3398V102.301H70.7617V103.695H67.3398V105.605H71.0547V107H65.6484ZM76.7236 101.301C76.6924 100.986 76.5583 100.741 76.3213 100.566C76.0843 100.392 75.7627 100.305 75.3564 100.305C75.0804 100.305 74.8473 100.344 74.6572 100.422C74.4671 100.497 74.3213 100.603 74.2197 100.738C74.1208 100.874 74.0713 101.027 74.0713 101.199C74.0661 101.342 74.096 101.467 74.1611 101.574C74.2288 101.681 74.3213 101.773 74.4385 101.852C74.5557 101.927 74.6911 101.993 74.8447 102.051C74.9984 102.105 75.1624 102.152 75.3369 102.191L76.0557 102.363C76.4046 102.441 76.7249 102.546 77.0166 102.676C77.3083 102.806 77.5609 102.966 77.7744 103.156C77.988 103.346 78.1533 103.57 78.2705 103.828C78.3903 104.086 78.4515 104.382 78.4541 104.715C78.4515 105.204 78.3265 105.629 78.0791 105.988C77.8343 106.345 77.4801 106.622 77.0166 106.82C76.5557 107.016 75.9997 107.113 75.3486 107.113C74.7028 107.113 74.1403 107.014 73.6611 106.816C73.1846 106.618 72.8122 106.326 72.5439 105.937C72.2783 105.547 72.139 105.064 72.126 104.488H73.7627C73.7809 104.757 73.8577 104.98 73.9932 105.16C74.1312 105.337 74.3148 105.471 74.5439 105.562C74.7757 105.651 75.0374 105.695 75.3291 105.695C75.6156 105.695 75.8643 105.654 76.0752 105.57C76.2887 105.487 76.4541 105.371 76.5713 105.223C76.6885 105.074 76.7471 104.904 76.7471 104.711C76.7471 104.531 76.6937 104.38 76.5869 104.258C76.4827 104.135 76.3291 104.031 76.126 103.945C75.9255 103.859 75.6794 103.781 75.3877 103.711L74.5166 103.492C73.8421 103.328 73.3096 103.072 72.9189 102.723C72.5283 102.374 72.3343 101.904 72.3369 101.312C72.3343 100.828 72.4632 100.405 72.7236 100.043C72.9867 99.681 73.3473 99.3984 73.8057 99.1953C74.264 98.9922 74.7848 98.8906 75.3682 98.8906C75.9619 98.8906 76.4801 98.9922 76.9229 99.1953C77.3682 99.3984 77.7145 99.681 77.9619 100.043C78.2093 100.405 78.3369 100.824 78.3447 101.301H76.7236Z" fill="#1A1A1A"/>
</svg>
