<svg width="80" height="109" viewBox="0 0 80 109" fill="none" xmlns="http://www.w3.org/2000/svg">
<path d="M35.3334 35.3329V35.3463M45.3342 44.667V44.6804M40.0004 40V40.0133M38.667 46.6672V46.6805M33.3332 42.6669V42.6802M40.0004 26.6656C37.3631 26.6656 34.7851 27.4476 32.5922 28.9128C30.3994 30.378 28.6903 32.4606 27.681 34.8971C26.6718 37.3337 26.4077 40.0148 26.9222 42.6014C27.4367 45.188 28.7067 47.564 30.5716 49.4288C32.4364 51.2937 34.8124 52.5637 37.399 53.0782C39.9856 53.5927 42.6667 53.3286 45.1033 52.3194C47.5398 51.3101 49.6224 49.601 51.0876 47.4082C52.5528 45.2153 53.3348 42.6373 53.3348 40C52.4081 40.2853 51.4211 40.3127 50.48 40.079C49.5389 39.8454 48.6793 39.3596 47.9937 38.6739C47.308 37.9883 46.8222 37.1287 46.5886 36.1876C46.3549 35.2465 46.3823 34.2595 46.6676 33.3328C45.7409 33.6181 44.7539 33.6455 43.8128 33.4118C42.8717 33.1782 42.0121 32.6924 41.3265 32.0067C40.6408 31.3211 40.155 30.4615 39.9214 29.5204C39.6877 28.5793 39.7151 27.5923 40.0004 26.6656Z" stroke="#1A1A1A" stroke-width="2" stroke-linecap="round"/>
<path d="M17.6953 107V99H23.0859V100.395H19.3867V102.301H22.8086V103.695H19.3867V105.605H23.1016V107H17.6953ZM27.2666 107H24.4307V99H27.29C28.0947 99 28.7874 99.1602 29.3682 99.4805C29.9489 99.7982 30.3955 100.255 30.708 100.852C31.0231 101.448 31.1807 102.161 31.1807 102.992C31.1807 103.826 31.0231 104.542 30.708 105.141C30.3955 105.74 29.9463 106.199 29.3604 106.52C28.777 106.84 28.0791 107 27.2666 107ZM26.1221 105.551H27.1963C27.6963 105.551 28.1169 105.462 28.458 105.285C28.8018 105.105 29.0596 104.828 29.2314 104.453C29.4059 104.076 29.4932 103.589 29.4932 102.992C29.4932 102.401 29.4059 101.918 29.2314 101.543C29.0596 101.168 28.8031 100.892 28.4619 100.715C28.1208 100.538 27.7002 100.449 27.2002 100.449H26.1221V105.551ZM34.125 99V107H32.4336V99H34.125ZM35.5166 107V99H38.7197C39.3083 99 39.7992 99.0872 40.1924 99.2617C40.5856 99.4362 40.8812 99.6784 41.0791 99.9883C41.277 100.296 41.376 100.65 41.376 101.051C41.376 101.363 41.3135 101.638 41.1885 101.875C41.0635 102.109 40.8916 102.302 40.6729 102.453C40.4567 102.602 40.2093 102.707 39.9307 102.77V102.848C40.2354 102.861 40.5205 102.947 40.7861 103.105C41.0544 103.264 41.2718 103.487 41.4385 103.773C41.6051 104.057 41.6885 104.396 41.6885 104.789C41.6885 105.214 41.583 105.592 41.3721 105.926C41.1637 106.257 40.8551 106.518 40.4463 106.711C40.0374 106.904 39.5335 107 38.9346 107H35.5166ZM37.208 105.617H38.5869C39.0583 105.617 39.402 105.527 39.6182 105.348C39.8343 105.165 39.9424 104.923 39.9424 104.621C39.9424 104.4 39.889 104.204 39.7822 104.035C39.6755 103.866 39.5231 103.733 39.3252 103.637C39.1299 103.54 38.8968 103.492 38.626 103.492H37.208V105.617ZM37.208 102.348H38.4619C38.6937 102.348 38.8994 102.307 39.0791 102.227C39.2614 102.143 39.4046 102.026 39.5088 101.875C39.6156 101.724 39.6689 101.543 39.6689 101.332C39.6689 101.043 39.5661 100.81 39.3604 100.633C39.1572 100.456 38.8682 100.367 38.4932 100.367H37.208V102.348ZM42.7891 107V99H44.4805V105.605H47.9102V107H42.7891ZM49.0303 107V99H54.4209V100.395H50.7217V102.301H54.1436V103.695H50.7217V105.605H54.4365V107H49.0303ZM60.1055 101.301C60.0742 100.986 59.9401 100.741 59.7031 100.566C59.4661 100.392 59.1445 100.305 58.7383 100.305C58.4622 100.305 58.2292 100.344 58.0391 100.422C57.849 100.497 57.7031 100.603 57.6016 100.738C57.5026 100.874 57.4531 101.027 57.4531 101.199C57.4479 101.342 57.4779 101.467 57.543 101.574C57.6107 101.681 57.7031 101.773 57.8203 101.852C57.9375 101.927 58.0729 101.993 58.2266 102.051C58.3802 102.105 58.5443 102.152 58.7188 102.191L59.4375 102.363C59.7865 102.441 60.1068 102.546 60.3984 102.676C60.6901 102.806 60.9427 102.966 61.1563 103.156C61.3698 103.346 61.5352 103.57 61.6523 103.828C61.7721 104.086 61.8333 104.382 61.8359 104.715C61.8333 105.204 61.7083 105.629 61.4609 105.988C61.2161 106.345 60.862 106.622 60.3984 106.82C59.9375 107.016 59.3815 107.113 58.7305 107.113C58.0846 107.113 57.5221 107.014 57.043 106.816C56.5664 106.618 56.194 106.326 55.9258 105.937C55.6602 105.547 55.5208 105.064 55.5078 104.488H57.1445C57.1628 104.757 57.2396 104.98 57.375 105.16C57.513 105.337 57.6966 105.471 57.9258 105.562C58.1576 105.651 58.4193 105.695 58.7109 105.695C58.9974 105.695 59.2461 105.654 59.457 105.57C59.6706 105.487 59.8359 105.371 59.9531 105.223C60.0703 105.074 60.1289 104.904 60.1289 104.711C60.1289 104.531 60.0755 104.38 59.9688 104.258C59.8646 104.135 59.7109 104.031 59.5078 103.945C59.3073 103.859 59.0612 103.781 58.7695 103.711L57.8984 103.492C57.224 103.328 56.6914 103.072 56.3008 102.723C55.9102 102.374 55.7161 101.904 55.7188 101.312C55.7161 100.828 55.8451 100.405 56.1055 100.043C56.3685 99.681 56.7292 99.3984 57.1875 99.1953C57.6458 98.9922 58.1667 98.8906 58.75 98.8906C59.3438 98.8906 59.862 98.9922 60.3047 99.1953C60.75 99.3984 61.0964 99.681 61.3438 100.043C61.5911 100.405 61.7188 100.824 61.7266 101.301H60.1055Z" fill="#1A1A1A"/>
</svg>
