<svg width="80" height="109" viewBox="0 0 80 109" fill="none" xmlns="http://www.w3.org/2000/svg">
<path d="M40.0004 53.3344V48.0006M40.0004 48.0006C38.0003 50.0008 35.3334 52.0009 31.9998 52.0009C31.9998 50.0008 32.6665 47.3339 34.6667 45.3337C34.6667 45.3337 31.3331 46.0005 26.666 44.0003C27.3327 42.0001 31.3331 40 33.3332 40C31.3331 38.6665 27.9995 34.6662 27.9995 31.9993C31.3331 31.9993 35.3334 33.9995 37.3335 35.9997C37.3335 32.6661 38.0003 29.3325 40.0004 26.6656C42.0006 29.3325 42.6673 32.6661 42.6673 35.9997C44.6675 33.9995 48.6678 31.9993 52.0014 31.9993C52.0014 34.6662 48.6678 38.6665 46.6676 40C48.6678 40 52.6681 42.0001 53.3348 44.0003C48.6678 46.0005 45.3342 45.3337 45.3342 45.3337C47.3343 47.3339 48.0011 50.0008 48.0011 52.0009C44.6675 52.0009 42.0006 50.0008 40.0004 48.0006Z" stroke="#1A1A1A" stroke-width="2" stroke-linecap="round"/>
<path d="M17.1953 107V99H22.4922V100.395H18.8867V102.301H22.1406V103.695H18.8867V107H17.1953ZM23.6299 107V99H25.3213V105.605H28.751V107H23.6299ZM36.9111 103C36.9111 103.872 36.7458 104.615 36.415 105.227C36.0869 105.839 35.639 106.306 35.0713 106.629C34.5062 106.949 33.8708 107.109 33.165 107.109C32.4541 107.109 31.8161 106.948 31.251 106.625C30.6859 106.302 30.2393 105.835 29.9111 105.223C29.583 104.611 29.4189 103.87 29.4189 103C29.4189 102.128 29.583 101.385 29.9111 100.773C30.2393 100.161 30.6859 99.6953 31.251 99.375C31.8161 99.0521 32.4541 98.8906 33.165 98.8906C33.8708 98.8906 34.5062 99.0521 35.0713 99.375C35.639 99.6953 36.0869 100.161 36.415 100.773C36.7458 101.385 36.9111 102.128 36.9111 103ZM35.1963 103C35.1963 102.435 35.1117 101.958 34.9424 101.57C34.7757 101.182 34.54 100.888 34.2354 100.688C33.9307 100.487 33.5739 100.387 33.165 100.387C32.7562 100.387 32.3994 100.487 32.0947 100.688C31.79 100.888 31.5531 101.182 31.3838 101.57C31.2171 101.958 31.1338 102.435 31.1338 103C31.1338 103.565 31.2171 104.042 31.3838 104.43C31.5531 104.818 31.79 105.112 32.0947 105.312C32.3994 105.513 32.7562 105.613 33.165 105.613C33.5739 105.613 33.9307 105.513 34.2354 105.312C34.54 105.112 34.7757 104.818 34.9424 104.43C35.1117 104.042 35.1963 103.565 35.1963 103ZM39.6641 107L37.375 99H39.2227L40.5469 104.559H40.6133L42.0742 99H43.6562L45.1133 104.57H45.1836L46.5078 99H48.3555L46.0664 107H44.418L42.8945 101.77H42.832L41.3125 107H39.6641ZM49.2607 107V99H54.6514V100.395H50.9521V102.301H54.374V103.695H50.9521V105.605H54.667V107H49.2607ZM55.9961 107V99H59.1523C59.7565 99 60.2721 99.1081 60.6992 99.3242C61.1289 99.5378 61.4557 99.8411 61.6797 100.234C61.9063 100.625 62.0195 101.085 62.0195 101.613C62.0195 102.145 61.9049 102.602 61.6758 102.984C61.4466 103.365 61.1146 103.656 60.6797 103.859C60.2474 104.062 59.724 104.164 59.1094 104.164H56.9961V102.805H58.8359C59.1589 102.805 59.4271 102.76 59.6406 102.672C59.8542 102.583 60.013 102.451 60.1172 102.273C60.224 102.096 60.2773 101.876 60.2773 101.613C60.2773 101.348 60.224 101.124 60.1172 100.941C60.013 100.759 59.8529 100.621 59.6367 100.527C59.4232 100.431 59.1536 100.383 58.8281 100.383H57.6875V107H55.9961ZM60.3164 103.359L62.3047 107H60.4375L58.4922 103.359H60.3164Z" fill="#1A1A1A"/>
</svg>
