<svg width="80" height="109" viewBox="0 0 80 109" fill="none" xmlns="http://www.w3.org/2000/svg">
<g clip-path="url(#clip0_7127_20690)">
<path d="M48.0719 41.12L27.3898 48.2469C26.8414 48.4355 26.2405 48.3985 25.7192 48.1442C25.198 47.8899 24.7991 47.439 24.6102 46.8906L24.25 45.8567C23.2106 42.8398 23.4121 39.5336 24.8103 36.6654C26.2086 33.7972 28.6889 31.6019 31.7058 30.5624C34.7226 29.5229 38.0288 29.7245 40.897 31.1227C43.7653 32.5209 45.9606 35.0013 47 38.0181L48.0719 41.12Z" stroke="black" stroke-width="2" stroke-linecap="round" stroke-linejoin="round"/>
<path d="M48.0717 41.12L55.0119 43.6458C55.3885 43.7926 55.7171 44.0408 55.9612 44.3629C56.2053 44.685 56.3554 45.0685 56.3948 45.4707C56.4342 45.873 56.3615 46.2783 56.1845 46.6417C56.0076 47.005 55.7335 47.3123 55.3925 47.5294C52.7822 49.1406 49.7884 50.0242 46.7216 50.0886C43.6547 50.1529 40.6265 49.3957 37.9509 47.8954L34.3809 45.8333" stroke="black" stroke-width="2" stroke-linecap="round" stroke-linejoin="round"/>
</g>
<path d="M30.5 101.586C30.4453 101.396 30.3685 101.228 30.2695 101.082C30.1706 100.934 30.0495 100.809 29.9063 100.707C29.7656 100.603 29.6042 100.523 29.4219 100.469C29.2422 100.414 29.043 100.387 28.8242 100.387C28.4154 100.387 28.056 100.488 27.7461 100.691C27.4388 100.895 27.1992 101.19 27.0273 101.578C26.8555 101.964 26.7695 102.435 26.7695 102.992C26.7695 103.549 26.8542 104.023 27.0234 104.414C27.1927 104.805 27.4323 105.103 27.7422 105.309C28.0521 105.512 28.418 105.613 28.8398 105.613C29.2227 105.613 29.5495 105.546 29.8203 105.41C30.0938 105.272 30.3021 105.078 30.4453 104.828C30.5911 104.578 30.6641 104.283 30.6641 103.941L31.0078 103.992H28.9453V102.719H32.293V103.727C32.293 104.43 32.1445 105.034 31.8477 105.539C31.5508 106.042 31.1419 106.43 30.6211 106.703C30.1003 106.974 29.5039 107.109 28.832 107.109C28.082 107.109 27.4232 106.944 26.8555 106.613C26.2878 106.28 25.8451 105.807 25.5273 105.195C25.2122 104.581 25.0547 103.852 25.0547 103.008C25.0547 102.359 25.1484 101.781 25.3359 101.273C25.526 100.763 25.7917 100.331 26.1328 99.9766C26.474 99.6224 26.8711 99.3529 27.3242 99.168C27.7773 98.9831 28.2682 98.8906 28.7969 98.8906C29.25 98.8906 29.6719 98.957 30.0625 99.0898C30.4531 99.2201 30.7995 99.4049 31.1016 99.6445C31.4063 99.8841 31.6549 100.169 31.8477 100.5C32.0404 100.828 32.1641 101.19 32.2188 101.586H30.5ZM33.5635 107V99H38.9541V100.395H35.2549V102.301H38.6768V103.695H35.2549V105.605H38.9697V107H33.5635ZM41.6777 107H39.8652L42.627 99H44.8066L47.5645 107H45.752L43.748 100.828H43.6855L41.6777 107ZM41.5645 103.855H45.8457V105.176H41.5645V103.855ZM48.5273 107V99H51.6836C52.2878 99 52.8034 99.1081 53.2305 99.3242C53.6602 99.5378 53.987 99.8411 54.2109 100.234C54.4375 100.625 54.5508 101.085 54.5508 101.613C54.5508 102.145 54.4362 102.602 54.207 102.984C53.9779 103.365 53.6458 103.656 53.2109 103.859C52.7786 104.062 52.2552 104.164 51.6406 104.164H49.5273V102.805H51.3672C51.6901 102.805 51.9583 102.76 52.1719 102.672C52.3854 102.583 52.5443 102.451 52.6484 102.273C52.7552 102.096 52.8086 101.876 52.8086 101.613C52.8086 101.348 52.7552 101.124 52.6484 100.941C52.5443 100.759 52.3841 100.621 52.168 100.527C51.9544 100.431 51.6849 100.383 51.3594 100.383H50.2188V107H48.5273ZM52.8477 103.359L54.8359 107H52.9688L51.0234 103.359H52.8477Z" fill="#1A1A1A"/>
<defs>
<clipPath id="clip0_7127_20690">
<rect width="35" height="35" fill="white" transform="translate(22.5 22.5)"/>
</clipPath>
</defs>
</svg>
