<svg width="80" height="109" viewBox="0 0 80 109" fill="none" xmlns="http://www.w3.org/2000/svg">
<path d="M47.2498 43.2122L44.5469 39.5859L35.5015 39.5588L32.7771 43.1689L32.75 52.2144C32.7486 52.6941 32.9378 53.1549 33.2761 53.4952C33.6143 53.8355 34.0739 54.0274 34.5537 54.0289L45.4082 54.0613" stroke="black" stroke-width="2" stroke-linecap="round" stroke-linejoin="round"/>
<path d="M47.2229 43.1689L47.25 52.2143C47.2514 52.6941 47.0622 53.1548 46.7239 53.4951C46.3857 53.8354 45.9261 54.0273 45.4463 54.0289L40.019 54.0451" stroke="black" stroke-width="2" stroke-linecap="round" stroke-linejoin="round"/>
<path d="M46.3308 34.4895L33.7496 34.4518L33.7344 39.5538L46.3156 39.5914L46.3308 34.4895Z" stroke="black" stroke-width="2" stroke-linecap="round" stroke-linejoin="round"/>
<path d="M36.3711 34.4595L38.2818 27.2531C38.7436 25.5114 41.2103 25.4966 41.6929 27.2326L43.7082 34.4814" stroke="black" stroke-width="2" stroke-linecap="round" stroke-linejoin="round"/>
<path d="M8.39062 100.395V99H14.9609V100.395H12.5117V107H10.8398V100.395H8.39062ZM17.7344 99V107H16.043V99H17.7344ZM25.8174 99V107H24.3564L20.876 101.965H20.8174V107H19.126V99H20.6104L24.0635 104.031H24.1338V99H25.8174ZM34.2734 101.801H32.5625C32.5313 101.579 32.4674 101.383 32.3711 101.211C32.2747 101.036 32.151 100.888 32 100.766C31.849 100.643 31.6745 100.549 31.4766 100.484C31.2813 100.419 31.069 100.387 30.8398 100.387C30.4258 100.387 30.0651 100.49 29.7578 100.695C29.4505 100.898 29.2122 101.195 29.043 101.586C28.8737 101.974 28.7891 102.445 28.7891 103C28.7891 103.57 28.8737 104.049 29.043 104.437C29.2148 104.826 29.4544 105.118 29.7617 105.316C30.069 105.514 30.4245 105.613 30.8281 105.613C31.0547 105.613 31.2643 105.583 31.457 105.523C31.6523 105.464 31.8255 105.376 31.9766 105.262C32.1276 105.145 32.2526 105.003 32.3516 104.836C32.4531 104.669 32.5234 104.479 32.5625 104.266L34.2734 104.273C34.2292 104.641 34.1185 104.995 33.9414 105.336C33.7669 105.674 33.5313 105.978 33.2344 106.246C32.9401 106.512 32.5885 106.723 32.1797 106.879C31.7734 107.033 31.3138 107.109 30.8008 107.109C30.0872 107.109 29.4492 106.948 28.8867 106.625C28.3268 106.302 27.8841 105.835 27.5586 105.223C27.2357 104.611 27.0742 103.87 27.0742 103C27.0742 102.128 27.2383 101.385 27.5664 100.773C27.8945 100.161 28.3398 99.6953 28.9023 99.375C29.4648 99.0521 30.0977 98.8906 30.8008 98.8906C31.2643 98.8906 31.694 98.9557 32.0898 99.0859C32.4883 99.2161 32.8411 99.4062 33.1484 99.6562C33.4557 99.9036 33.7057 100.207 33.8984 100.566C34.0938 100.926 34.2188 101.337 34.2734 101.801ZM35.1816 100.395V99H41.752V100.395H39.3027V107H37.6309V100.395H35.1816ZM47.7754 99H49.4668V104.195C49.4668 104.779 49.3275 105.289 49.0488 105.727C48.7728 106.164 48.3861 106.505 47.8887 106.75C47.3913 106.992 46.8118 107.113 46.1504 107.113C45.4863 107.113 44.9056 106.992 44.4082 106.75C43.9108 106.505 43.5241 106.164 43.248 105.727C42.972 105.289 42.834 104.779 42.834 104.195V99H44.5254V104.051C44.5254 104.355 44.5918 104.626 44.7246 104.863C44.86 105.1 45.0501 105.286 45.2949 105.422C45.5397 105.557 45.8249 105.625 46.1504 105.625C46.4785 105.625 46.7637 105.557 47.0059 105.422C47.2507 105.286 47.4395 105.1 47.5723 104.863C47.7077 104.626 47.7754 104.355 47.7754 104.051V99ZM50.8584 107V99H54.0146C54.6188 99 55.1344 99.1081 55.5615 99.3242C55.9912 99.5378 56.318 99.8411 56.542 100.234C56.7686 100.625 56.8818 101.085 56.8818 101.613C56.8818 102.145 56.7673 102.602 56.5381 102.984C56.3089 103.365 55.9769 103.656 55.542 103.859C55.1097 104.062 54.5863 104.164 53.9717 104.164H51.8584V102.805H53.6982C54.0212 102.805 54.2894 102.76 54.5029 102.672C54.7165 102.583 54.8753 102.451 54.9795 102.273C55.0863 102.096 55.1396 101.876 55.1396 101.613C55.1396 101.348 55.0863 101.124 54.9795 100.941C54.8753 100.759 54.7152 100.621 54.499 100.527C54.2855 100.431 54.016 100.383 53.6904 100.383H52.5498V107H50.8584ZM55.1787 103.359L57.167 107H55.2998L53.3545 103.359H55.1787ZM58.0771 107V99H63.4678V100.395H59.7686V102.301H63.1904V103.695H59.7686V105.605H63.4834V107H58.0771ZM69.1523 101.301C69.1211 100.986 68.987 100.741 68.75 100.566C68.513 100.392 68.1914 100.305 67.7852 100.305C67.5091 100.305 67.276 100.344 67.0859 100.422C66.8958 100.497 66.75 100.603 66.6484 100.738C66.5495 100.874 66.5 101.027 66.5 101.199C66.4948 101.342 66.5247 101.467 66.5898 101.574C66.6576 101.681 66.75 101.773 66.8672 101.852C66.9844 101.927 67.1198 101.993 67.2734 102.051C67.4271 102.105 67.5911 102.152 67.7656 102.191L68.4844 102.363C68.8333 102.441 69.1536 102.546 69.4453 102.676C69.737 102.806 69.9896 102.966 70.2031 103.156C70.4167 103.346 70.582 103.57 70.6992 103.828C70.819 104.086 70.8802 104.382 70.8828 104.715C70.8802 105.204 70.7552 105.629 70.5078 105.988C70.263 106.345 69.9089 106.622 69.4453 106.82C68.9844 107.016 68.4284 107.113 67.7773 107.113C67.1315 107.113 66.569 107.014 66.0898 106.816C65.6133 106.618 65.2409 106.326 64.9727 105.937C64.707 105.547 64.5677 105.064 64.5547 104.488H66.1914C66.2096 104.757 66.2865 104.98 66.4219 105.16C66.5599 105.337 66.7435 105.471 66.9727 105.562C67.2044 105.651 67.4661 105.695 67.7578 105.695C68.0443 105.695 68.293 105.654 68.5039 105.57C68.7174 105.487 68.8828 105.371 69 105.223C69.1172 105.074 69.1758 104.904 69.1758 104.711C69.1758 104.531 69.1224 104.38 69.0156 104.258C68.9115 104.135 68.7578 104.031 68.5547 103.945C68.3542 103.859 68.1081 103.781 67.8164 103.711L66.9453 103.492C66.2708 103.328 65.7383 103.072 65.3477 102.723C64.957 102.374 64.763 101.904 64.7656 101.312C64.763 100.828 64.8919 100.405 65.1523 100.043C65.4154 99.681 65.776 99.3984 66.2344 99.1953C66.6927 98.9922 67.2135 98.8906 67.7969 98.8906C68.3906 98.8906 68.9089 98.9922 69.3516 99.1953C69.7969 99.3984 70.1432 99.681 70.3906 100.043C70.638 100.405 70.7656 100.824 70.7734 101.301H69.1523Z" fill="#1A1A1A"/>
</svg>
