<svg width="80" height="109" viewBox="0 0 80 109" fill="none" xmlns="http://www.w3.org/2000/svg">
<path d="M41.0672 50.1323C41.4052 50.3858 41.7987 50.5554 42.2151 50.627C42.6316 50.6986 43.0591 50.6703 43.4625 50.5443C43.8658 50.4184 44.2335 50.1983 44.5351 49.9024C44.8367 49.6065 45.0637 49.2432 45.1973 48.8424C45.331 48.4416 45.3674 48.0148 45.3037 47.5971C45.2399 47.1794 45.0779 46.7829 44.8308 46.4401C44.5837 46.0974 44.2587 45.8183 43.8825 45.6257C43.5064 45.4332 43.0899 45.3328 42.6673 45.3328H26.666M47.3343 34.6672C47.6753 34.2127 48.1268 33.8529 48.6459 33.6219C49.1651 33.3909 49.7347 33.2965 50.3006 33.3475C50.8665 33.3985 51.41 33.5933 51.8795 33.9134C52.3489 34.2335 52.7288 34.6683 52.9829 35.1764C53.237 35.6846 53.357 36.2493 53.3314 36.8168C53.3059 37.3844 53.1357 37.936 52.8369 38.4193C52.5382 38.9026 52.1209 39.3015 51.6246 39.5781C51.1283 39.8548 50.5695 40 50.0012 40H26.666M37.0668 29.8677C37.4049 29.6142 37.7984 29.4446 38.2148 29.373C38.6313 29.3014 39.0588 29.3297 39.4622 29.4557C39.8655 29.5817 40.2331 29.8017 40.5348 30.0976C40.8364 30.3935 41.0634 30.7568 41.197 31.1576C41.3306 31.5584 41.3671 31.9853 41.3034 32.4029C41.2396 32.8206 41.0775 33.2171 40.8305 33.5599C40.5834 33.9026 40.2584 34.1818 39.8822 34.3743C39.5061 34.5668 39.0895 34.6672 38.667 34.6672H26.666" stroke="#1A1A1A" stroke-width="2" stroke-linecap="round"/>
<path d="M23.6406 99L25.5742 105.078H25.6484L27.5859 99H29.4609L26.7031 107H24.5234L21.7617 99H23.6406ZM30.7393 107H28.9268L31.6885 99H33.8682L36.626 107H34.8135L32.8096 100.828H32.7471L30.7393 107ZM30.626 103.855H34.9072V105.176H30.626V103.855ZM37.5889 107V99H40.7451C41.3519 99 41.8688 99.1159 42.2959 99.3477C42.723 99.5768 43.0485 99.8958 43.2725 100.305C43.499 100.711 43.6123 101.18 43.6123 101.711C43.6123 102.242 43.4977 102.711 43.2686 103.117C43.0394 103.523 42.7074 103.84 42.2725 104.066C41.8402 104.293 41.3167 104.406 40.7021 104.406H38.6904V103.051H40.4287C40.7542 103.051 41.0225 102.995 41.2334 102.883C41.4469 102.768 41.6058 102.611 41.71 102.41C41.8167 102.207 41.8701 101.974 41.8701 101.711C41.8701 101.445 41.8167 101.214 41.71 101.016C41.6058 100.815 41.4469 100.66 41.2334 100.551C41.0199 100.439 40.749 100.383 40.4209 100.383H39.2803V107H37.5889ZM44.7109 107V99H50.1016V100.395H46.4023V102.301H49.8242V103.695H46.4023V105.605H50.1172V107H44.7109ZM55.7861 101.301C55.7549 100.986 55.6208 100.741 55.3838 100.566C55.1468 100.392 54.8252 100.305 54.4189 100.305C54.1429 100.305 53.9098 100.344 53.7197 100.422C53.5296 100.497 53.3838 100.603 53.2822 100.738C53.1833 100.874 53.1338 101.027 53.1338 101.199C53.1286 101.342 53.1585 101.467 53.2236 101.574C53.2913 101.681 53.3838 101.773 53.501 101.852C53.6182 101.927 53.7536 101.993 53.9072 102.051C54.0609 102.105 54.2249 102.152 54.3994 102.191L55.1182 102.363C55.4671 102.441 55.7874 102.546 56.0791 102.676C56.3708 102.806 56.6234 102.966 56.8369 103.156C57.0505 103.346 57.2158 103.57 57.333 103.828C57.4528 104.086 57.514 104.382 57.5166 104.715C57.514 105.204 57.389 105.629 57.1416 105.988C56.8968 106.345 56.5426 106.622 56.0791 106.82C55.6182 107.016 55.0622 107.113 54.4111 107.113C53.7653 107.113 53.2028 107.014 52.7236 106.816C52.2471 106.618 51.8747 106.326 51.6064 105.937C51.3408 105.547 51.2015 105.064 51.1885 104.488H52.8252C52.8434 104.757 52.9202 104.98 53.0557 105.16C53.1937 105.337 53.3773 105.471 53.6064 105.562C53.8382 105.651 54.0999 105.695 54.3916 105.695C54.6781 105.695 54.9268 105.654 55.1377 105.57C55.3512 105.487 55.5166 105.371 55.6338 105.223C55.751 105.074 55.8096 104.904 55.8096 104.711C55.8096 104.531 55.7562 104.38 55.6494 104.258C55.5452 104.135 55.3916 104.031 55.1885 103.945C54.988 103.859 54.7419 103.781 54.4502 103.711L53.5791 103.492C52.9046 103.328 52.3721 103.072 51.9814 102.723C51.5908 102.374 51.3968 101.904 51.3994 101.312C51.3968 100.828 51.5257 100.405 51.7861 100.043C52.0492 99.681 52.4098 99.3984 52.8682 99.1953C53.3265 98.9922 53.8473 98.8906 54.4307 98.8906C55.0244 98.8906 55.5426 98.9922 55.9854 99.1953C56.4307 99.3984 56.777 99.681 57.0244 100.043C57.2718 100.405 57.3994 100.824 57.4072 101.301H55.7861Z" fill="#1A1A1A"/>
</svg>
