<svg width="92" height="109" viewBox="0 0 92 109" fill="none" xmlns="http://www.w3.org/2000/svg">
<rect x="6.5" y="0.5" width="79" height="79" rx="39.5" stroke="#E8E6E1"/>
<path d="M52.6008 50.6006C50.8503 52.351 48.4761 53.3344 46.0004 53.3344C43.5248 53.3344 41.1505 52.351 39.4 50.6006C37.6495 48.8502 36.666 46.4761 36.666 44.0007C36.666 41.3339 37.9995 38.8005 40.6665 36.667C43.3334 34.5336 45.3337 31.3335 46.0004 28C46.6672 31.3335 48.6674 34.5336 51.3344 36.667C54.0013 38.8005 55.3348 41.3339 55.3348 44.0007C55.3348 46.4761 54.3514 48.8502 52.6008 50.6006Z" stroke="#1A1A1A" stroke-width="2" stroke-linecap="round"/>
<path d="M7.75391 101.801H6.04297C6.01172 101.579 5.94792 101.383 5.85156 101.211C5.75521 101.036 5.63151 100.888 5.48047 100.766C5.32943 100.643 5.15495 100.549 4.95703 100.484C4.76172 100.419 4.54948 100.387 4.32031 100.387C3.90625 100.387 3.54557 100.49 3.23828 100.695C2.93099 100.898 2.69271 101.195 2.52344 101.586C2.35417 101.974 2.26953 102.445 2.26953 103C2.26953 103.57 2.35417 104.049 2.52344 104.437C2.69531 104.826 2.9349 105.118 3.24219 105.316C3.54948 105.514 3.90495 105.613 4.30859 105.613C4.53516 105.613 4.74479 105.583 4.9375 105.523C5.13281 105.464 5.30599 105.376 5.45703 105.262C5.60807 105.145 5.73307 105.003 5.83203 104.836C5.93359 104.669 6.00391 104.479 6.04297 104.266L7.75391 104.273C7.70964 104.641 7.59896 104.995 7.42188 105.336C7.2474 105.674 7.01172 105.978 6.71484 106.246C6.42057 106.512 6.06901 106.723 5.66016 106.879C5.25391 107.033 4.79427 107.109 4.28125 107.109C3.56771 107.109 2.92969 106.948 2.36719 106.625C1.80729 106.302 1.36458 105.835 1.03906 105.223C0.716146 104.611 0.554688 103.87 0.554688 103C0.554688 102.128 0.71875 101.385 1.04688 100.773C1.375 100.161 1.82031 99.6953 2.38281 99.375C2.94531 99.0521 3.57813 98.8906 4.28125 98.8906C4.74479 98.8906 5.17448 98.9557 5.57031 99.0859C5.96875 99.2161 6.32161 99.4062 6.62891 99.6562C6.9362 99.9036 7.1862 100.207 7.37891 100.566C7.57422 100.926 7.69922 101.337 7.75391 101.801ZM16.3184 103C16.3184 103.872 16.153 104.615 15.8223 105.227C15.4941 105.839 15.0462 106.306 14.4785 106.629C13.9134 106.949 13.278 107.109 12.5723 107.109C11.8613 107.109 11.2233 106.948 10.6582 106.625C10.0931 106.302 9.64648 105.835 9.31836 105.223C8.99023 104.611 8.82617 103.87 8.82617 103C8.82617 102.128 8.99023 101.385 9.31836 100.773C9.64648 100.161 10.0931 99.6953 10.6582 99.375C11.2233 99.0521 11.8613 98.8906 12.5723 98.8906C13.278 98.8906 13.9134 99.0521 14.4785 99.375C15.0462 99.6953 15.4941 100.161 15.8223 100.773C16.153 101.385 16.3184 102.128 16.3184 103ZM14.6035 103C14.6035 102.435 14.5189 101.958 14.3496 101.57C14.1829 101.182 13.9473 100.888 13.6426 100.688C13.3379 100.487 12.9811 100.387 12.5723 100.387C12.1634 100.387 11.8066 100.487 11.502 100.688C11.1973 100.888 10.9603 101.182 10.791 101.57C10.6243 101.958 10.541 102.435 10.541 103C10.541 103.565 10.6243 104.042 10.791 104.43C10.9603 104.818 11.1973 105.112 11.502 105.312C11.8066 105.513 12.1634 105.613 12.5723 105.613C12.9811 105.613 13.3379 105.513 13.6426 105.312C13.9473 105.112 14.1829 104.818 14.3496 104.43C14.5189 104.042 14.6035 103.565 14.6035 103ZM24.2627 99V107H22.8018L19.3213 101.965H19.2627V107H17.5713V99H19.0557L22.5088 104.031H22.5791V99H24.2627ZM32.7187 101.801H31.0078C30.9766 101.579 30.9128 101.383 30.8164 101.211C30.7201 101.036 30.5964 100.888 30.4453 100.766C30.2943 100.643 30.1198 100.549 29.9219 100.484C29.7266 100.419 29.5143 100.387 29.2852 100.387C28.8711 100.387 28.5104 100.49 28.2031 100.695C27.8958 100.898 27.6576 101.195 27.4883 101.586C27.319 101.974 27.2344 102.445 27.2344 103C27.2344 103.57 27.319 104.049 27.4883 104.437C27.6602 104.826 27.8997 105.118 28.207 105.316C28.5143 105.514 28.8698 105.613 29.2734 105.613C29.5 105.613 29.7096 105.583 29.9023 105.523C30.0977 105.464 30.2708 105.376 30.4219 105.262C30.5729 105.145 30.6979 105.003 30.7969 104.836C30.8984 104.669 30.9688 104.479 31.0078 104.266L32.7187 104.273C32.6745 104.641 32.5638 104.995 32.3867 105.336C32.2122 105.674 31.9766 105.978 31.6797 106.246C31.3854 106.512 31.0339 106.723 30.625 106.879C30.2188 107.033 29.7591 107.109 29.2461 107.109C28.5326 107.109 27.8945 106.948 27.332 106.625C26.7721 106.302 26.3294 105.835 26.0039 105.223C25.681 104.611 25.5195 103.87 25.5195 103C25.5195 102.128 25.6836 101.385 26.0117 100.773C26.3398 100.161 26.7852 99.6953 27.3477 99.375C27.9102 99.0521 28.543 98.8906 29.2461 98.8906C29.7096 98.8906 30.1393 98.9557 30.5352 99.0859C30.9336 99.2161 31.2865 99.4062 31.5938 99.6562C31.901 99.9036 32.151 100.207 32.3438 100.566C32.5391 100.926 32.6641 101.337 32.7187 101.801ZM33.9316 107V99H39.3223V100.395H35.623V102.301H39.0449V103.695H35.623V105.605H39.3379V107H33.9316ZM47.3584 99V107H45.8975L42.417 101.965H42.3584V107H40.667V99H42.1514L45.6045 104.031H45.6748V99H47.3584ZM48.4512 100.395V99H55.0215V100.395H52.5723V107H50.9004V100.395H48.4512ZM56.1035 107V99H59.2598C59.8639 99 60.3796 99.1081 60.8066 99.3242C61.2363 99.5378 61.5632 99.8411 61.7871 100.234C62.0137 100.625 62.127 101.085 62.127 101.613C62.127 102.145 62.0124 102.602 61.7832 102.984C61.554 103.365 61.222 103.656 60.7871 103.859C60.3548 104.062 59.8314 104.164 59.2168 104.164H57.1035V102.805H58.9434C59.2663 102.805 59.5345 102.76 59.748 102.672C59.9616 102.583 60.1204 102.451 60.2246 102.273C60.3314 102.096 60.3848 101.876 60.3848 101.613C60.3848 101.348 60.3314 101.124 60.2246 100.941C60.1204 100.759 59.9603 100.621 59.7441 100.527C59.5306 100.431 59.2611 100.383 58.9355 100.383H57.7949V107H56.1035ZM60.4238 103.359L62.4121 107H60.5449L58.5996 103.359H60.4238ZM64.7012 107H62.8887L65.6504 99H67.8301L70.5879 107H68.7754L66.7715 100.828H66.709L64.7012 107ZM64.5879 103.855H68.8691V105.176H64.5879V103.855ZM70.2686 100.395V99H76.8389V100.395H74.3896V107H72.7178V100.395H70.2686ZM77.9209 107V99H83.3115V100.395H79.6123V102.301H83.0342V103.695H79.6123V105.605H83.3271V107H77.9209ZM88.9961 101.301C88.9648 100.986 88.8307 100.741 88.5938 100.566C88.3568 100.392 88.0352 100.305 87.6289 100.305C87.3529 100.305 87.1198 100.344 86.9297 100.422C86.7396 100.497 86.5938 100.603 86.4922 100.738C86.3932 100.874 86.3438 101.027 86.3438 101.199C86.3385 101.342 86.3685 101.467 86.4336 101.574C86.5013 101.681 86.5938 101.773 86.7109 101.852C86.8281 101.927 86.9635 101.993 87.1172 102.051C87.2708 102.105 87.4349 102.152 87.6094 102.191L88.3281 102.363C88.6771 102.441 88.9974 102.546 89.2891 102.676C89.5807 102.806 89.8333 102.966 90.0469 103.156C90.2604 103.346 90.4258 103.57 90.543 103.828C90.6628 104.086 90.724 104.382 90.7266 104.715C90.724 105.204 90.599 105.629 90.3516 105.988C90.1068 106.345 89.7526 106.622 89.2891 106.82C88.8281 107.016 88.2721 107.113 87.6211 107.113C86.9753 107.113 86.4128 107.014 85.9336 106.816C85.457 106.618 85.0846 106.326 84.8164 105.937C84.5508 105.547 84.4115 105.064 84.3984 104.488H86.0352C86.0534 104.757 86.1302 104.98 86.2656 105.16C86.4036 105.337 86.5872 105.471 86.8164 105.562C87.0482 105.651 87.3099 105.695 87.6016 105.695C87.888 105.695 88.1367 105.654 88.3477 105.57C88.5612 105.487 88.7266 105.371 88.8438 105.223C88.9609 105.074 89.0195 104.904 89.0195 104.711C89.0195 104.531 88.9661 104.38 88.8594 104.258C88.7552 104.135 88.6016 104.031 88.3984 103.945C88.1979 103.859 87.9518 103.781 87.6602 103.711L86.7891 103.492C86.1146 103.328 85.582 103.072 85.1914 102.723C84.8008 102.374 84.6068 101.904 84.6094 101.312C84.6068 100.828 84.7357 100.405 84.9961 100.043C85.2591 99.681 85.6198 99.3984 86.0781 99.1953C86.5365 98.9922 87.0573 98.8906 87.6406 98.8906C88.2344 98.8906 88.7526 98.9922 89.1953 99.1953C89.6406 99.3984 89.987 99.681 90.2344 100.043C90.4818 100.405 90.6094 100.824 90.6172 101.301H88.9961Z" fill="#1A1A1A"/>
</svg>
