<svg width="80" height="109" viewBox="0 0 80 109" fill="none" xmlns="http://www.w3.org/2000/svg">
<rect x="0.5" y="0.5" width="79" height="79" rx="39.5" stroke="#E8E6E1"/>
<path d="M31.5003 45.5C30.1669 46.8333 30.0003 48 31.0003 49C32.0003 50 33.1669 49.8333 34.5003 48.5L48.5003 34.5C49.8336 33.1666 50.0003 32 49.0003 31C48.0003 30 46.8336 30.1666 45.5003 31.5L31.5003 45.5Z" stroke="#1A1A1A" stroke-width="2" stroke-linecap="round" stroke-linejoin="round"/>
<path d="M9.69531 107V99H12.8516C13.4583 99 13.9753 99.1159 14.4023 99.3477C14.8294 99.5768 15.1549 99.8958 15.3789 100.305C15.6055 100.711 15.7188 101.18 15.7188 101.711C15.7188 102.242 15.6042 102.711 15.375 103.117C15.1458 103.523 14.8138 103.84 14.3789 104.066C13.9466 104.293 13.4232 104.406 12.8086 104.406H10.7969V103.051H12.5352C12.8607 103.051 13.1289 102.995 13.3398 102.883C13.5534 102.768 13.7122 102.611 13.8164 102.41C13.9232 102.207 13.9766 101.974 13.9766 101.711C13.9766 101.445 13.9232 101.214 13.8164 101.016C13.7122 100.815 13.5534 100.66 13.3398 100.551C13.1263 100.439 12.8555 100.383 12.5273 100.383H11.3867V107H9.69531ZM16.8174 107V99H19.9736C20.5778 99 21.0934 99.1081 21.5205 99.3242C21.9502 99.5378 22.277 99.8411 22.501 100.234C22.7275 100.625 22.8408 101.085 22.8408 101.613C22.8408 102.145 22.7262 102.602 22.4971 102.984C22.2679 103.365 21.9359 103.656 21.501 103.859C21.0687 104.062 20.5452 104.164 19.9307 104.164H17.8174V102.805H19.6572C19.9801 102.805 20.2484 102.76 20.4619 102.672C20.6755 102.583 20.8343 102.451 20.9385 102.273C21.0452 102.096 21.0986 101.876 21.0986 101.613C21.0986 101.348 21.0452 101.124 20.9385 100.941C20.8343 100.759 20.6742 100.621 20.458 100.527C20.2445 100.431 19.9749 100.383 19.6494 100.383H18.5088V107H16.8174ZM21.1377 103.359L23.126 107H21.2588L19.3135 103.359H21.1377ZM24.0361 107V99H29.4268V100.395H25.7275V102.301H29.1494V103.695H25.7275V105.605H29.4424V107H24.0361ZM34.4785 102.34V103.66H30.8301V102.34H34.4785ZM35.9277 107V99H39.084C39.6882 99 40.2038 99.1081 40.6309 99.3242C41.0605 99.5378 41.3874 99.8411 41.6113 100.234C41.8379 100.625 41.9512 101.085 41.9512 101.613C41.9512 102.145 41.8366 102.602 41.6074 102.984C41.3783 103.365 41.0462 103.656 40.6113 103.859C40.179 104.062 39.6556 104.164 39.041 104.164H36.9277V102.805H38.7676C39.0905 102.805 39.3587 102.76 39.5723 102.672C39.7858 102.583 39.9447 102.451 40.0488 102.273C40.1556 102.096 40.209 101.876 40.209 101.613C40.209 101.348 40.1556 101.124 40.0488 100.941C39.9447 100.759 39.7845 100.621 39.5684 100.527C39.3548 100.431 39.0853 100.383 38.7598 100.383H37.6191V107H35.9277ZM40.248 103.359L42.2363 107H40.3691L38.4238 103.359H40.248ZM50.498 103C50.498 103.872 50.3327 104.615 50.002 105.227C49.6738 105.839 49.2259 106.306 48.6582 106.629C48.0931 106.949 47.4577 107.109 46.752 107.109C46.041 107.109 45.403 106.948 44.8379 106.625C44.2728 106.302 43.8262 105.835 43.498 105.223C43.1699 104.611 43.0059 103.87 43.0059 103C43.0059 102.128 43.1699 101.385 43.498 100.773C43.8262 100.161 44.2728 99.6953 44.8379 99.375C45.403 99.0521 46.041 98.8906 46.752 98.8906C47.4577 98.8906 48.0931 99.0521 48.6582 99.375C49.2259 99.6953 49.6738 100.161 50.002 100.773C50.3327 101.385 50.498 102.128 50.498 103ZM48.7832 103C48.7832 102.435 48.6986 101.958 48.5293 101.57C48.3626 101.182 48.127 100.888 47.8223 100.688C47.5176 100.487 47.1608 100.387 46.752 100.387C46.3431 100.387 45.9863 100.487 45.6816 100.688C45.377 100.888 45.14 101.182 44.9707 101.57C44.804 101.958 44.7207 102.435 44.7207 103C44.7207 103.565 44.804 104.042 44.9707 104.43C45.14 104.818 45.377 105.112 45.6816 105.312C45.9863 105.513 46.3431 105.613 46.752 105.613C47.1608 105.613 47.5176 105.513 47.8223 105.312C48.127 105.112 48.3626 104.818 48.5293 104.43C48.6986 104.042 48.7832 103.565 48.7832 103ZM51.751 107V99H53.4424V105.605H56.8721V107H51.751ZM57.9922 107V99H59.6836V105.605H63.1133V107H57.9922ZM68.5732 101.301C68.542 100.986 68.4079 100.741 68.1709 100.566C67.9339 100.392 67.6123 100.305 67.2061 100.305C66.93 100.305 66.6969 100.344 66.5068 100.422C66.3167 100.497 66.1709 100.603 66.0693 100.738C65.9704 100.874 65.9209 101.027 65.9209 101.199C65.9157 101.342 65.9456 101.467 66.0107 101.574C66.0785 101.681 66.1709 101.773 66.2881 101.852C66.4053 101.927 66.5407 101.993 66.6943 102.051C66.848 102.105 67.012 102.152 67.1865 102.191L67.9053 102.363C68.2542 102.441 68.5745 102.546 68.8662 102.676C69.1579 102.806 69.4105 102.966 69.624 103.156C69.8376 103.346 70.0029 103.57 70.1201 103.828C70.2399 104.086 70.3011 104.382 70.3037 104.715C70.3011 105.204 70.1761 105.629 69.9287 105.988C69.6839 106.345 69.3298 106.622 68.8662 106.82C68.4053 107.016 67.8493 107.113 67.1982 107.113C66.5524 107.113 65.9899 107.014 65.5107 106.816C65.0342 106.618 64.6618 106.326 64.3936 105.937C64.1279 105.547 63.9886 105.064 63.9756 104.488H65.6123C65.6305 104.757 65.7074 104.98 65.8428 105.16C65.9808 105.337 66.1644 105.471 66.3936 105.562C66.6253 105.651 66.887 105.695 67.1787 105.695C67.4652 105.695 67.7139 105.654 67.9248 105.57C68.1383 105.487 68.3037 105.371 68.4209 105.223C68.5381 105.074 68.5967 104.904 68.5967 104.711C68.5967 104.531 68.5433 104.38 68.4365 104.258C68.3324 104.135 68.1787 104.031 67.9756 103.945C67.7751 103.859 67.529 103.781 67.2373 103.711L66.3662 103.492C65.6917 103.328 65.1592 103.072 64.7686 102.723C64.3779 102.374 64.1839 101.904 64.1865 101.312C64.1839 100.828 64.3128 100.405 64.5732 100.043C64.8363 99.681 65.1969 99.3984 65.6553 99.1953C66.1136 98.9922 66.6344 98.8906 67.2178 98.8906C67.8115 98.8906 68.3298 98.9922 68.7725 99.1953C69.2178 99.3984 69.5641 99.681 69.8115 100.043C70.0589 100.405 70.1865 100.824 70.1943 101.301H68.5732Z" fill="#1A1A1A"/>
</svg>
