<svg width="80" height="109" viewBox="0 0 80 109" fill="none" xmlns="http://www.w3.org/2000/svg">
<rect x="0.5" y="0.5" width="79" height="79" rx="39.5" stroke="#E8E6E1"/>
<path d="M28 35C28 32.3333 32 31 40 31C48 31 52 32.3333 52 35M28 35C28 37.6667 32 39 40 39C48 39 52 37.6667 52 35M28 35V45C28 47.6667 32 49 40 49C48 49 52 47.6667 52 45V35" stroke="#1A1A1A" stroke-width="2" stroke-linecap="round" stroke-linejoin="round"/>
<path d="M12.3906 100.395V99H18.9609V100.395H16.5117V107H14.8398V100.395H12.3906ZM27.0293 103C27.0293 103.872 26.8639 104.615 26.5332 105.227C26.2051 105.839 25.7572 106.306 25.1895 106.629C24.6243 106.949 23.9889 107.109 23.2832 107.109C22.5723 107.109 21.9342 106.948 21.3691 106.625C20.804 106.302 20.3574 105.835 20.0293 105.223C19.7012 104.611 19.5371 103.87 19.5371 103C19.5371 102.128 19.7012 101.385 20.0293 100.773C20.3574 100.161 20.804 99.6953 21.3691 99.375C21.9342 99.0521 22.5723 98.8906 23.2832 98.8906C23.9889 98.8906 24.6243 99.0521 25.1895 99.375C25.7572 99.6953 26.2051 100.161 26.5332 100.773C26.8639 101.385 27.0293 102.128 27.0293 103ZM25.3145 103C25.3145 102.435 25.2298 101.958 25.0605 101.57C24.8939 101.182 24.6582 100.888 24.3535 100.688C24.0488 100.487 23.6921 100.387 23.2832 100.387C22.8743 100.387 22.5176 100.487 22.2129 100.688C21.9082 100.888 21.6712 101.182 21.502 101.57C21.3353 101.958 21.252 102.435 21.252 103C21.252 103.565 21.3353 104.042 21.502 104.43C21.6712 104.818 21.9082 105.112 22.2129 105.312C22.5176 105.513 22.8743 105.613 23.2832 105.613C23.6921 105.613 24.0488 105.513 24.3535 105.312C24.6582 105.112 24.8939 104.818 25.0605 104.43C25.2298 104.042 25.3145 103.565 25.3145 103ZM28.2822 107V99H31.4385C32.0452 99 32.5622 99.1159 32.9893 99.3477C33.4163 99.5768 33.7419 99.8958 33.9658 100.305C34.1924 100.711 34.3057 101.18 34.3057 101.711C34.3057 102.242 34.1911 102.711 33.9619 103.117C33.7327 103.523 33.4007 103.84 32.9658 104.066C32.5335 104.293 32.0101 104.406 31.3955 104.406H29.3838V103.051H31.1221C31.4476 103.051 31.7158 102.995 31.9268 102.883C32.1403 102.768 32.2992 102.611 32.4033 102.41C32.5101 102.207 32.5635 101.974 32.5635 101.711C32.5635 101.445 32.5101 101.214 32.4033 101.016C32.2992 100.815 32.1403 100.66 31.9268 100.551C31.7132 100.439 31.4424 100.383 31.1143 100.383H29.9736V107H28.2822ZM37.0957 99V107H35.4043V99H37.0957ZM45.5459 101.801H43.835C43.8037 101.579 43.7399 101.383 43.6436 101.211C43.5472 101.036 43.4235 100.888 43.2725 100.766C43.1214 100.643 42.9469 100.549 42.749 100.484C42.5537 100.419 42.3415 100.387 42.1123 100.387C41.6982 100.387 41.3376 100.49 41.0303 100.695C40.723 100.898 40.4847 101.195 40.3154 101.586C40.1462 101.974 40.0615 102.445 40.0615 103C40.0615 103.57 40.1462 104.049 40.3154 104.437C40.4873 104.826 40.7269 105.118 41.0342 105.316C41.3415 105.514 41.6969 105.613 42.1006 105.613C42.3271 105.613 42.5368 105.583 42.7295 105.523C42.9248 105.464 43.098 105.376 43.249 105.262C43.4001 105.145 43.5251 105.003 43.624 104.836C43.7256 104.669 43.7959 104.479 43.835 104.266L45.5459 104.273C45.5016 104.641 45.391 104.995 45.2139 105.336C45.0394 105.674 44.8037 105.978 44.5068 106.246C44.2126 106.512 43.861 106.723 43.4521 106.879C43.0459 107.033 42.5863 107.109 42.0732 107.109C41.3597 107.109 40.7217 106.948 40.1592 106.625C39.5993 106.302 39.1566 105.835 38.8311 105.223C38.5081 104.611 38.3467 103.87 38.3467 103C38.3467 102.128 38.5107 101.385 38.8389 100.773C39.167 100.161 39.6123 99.6953 40.1748 99.375C40.7373 99.0521 41.3701 98.8906 42.0732 98.8906C42.5368 98.8906 42.9665 98.9557 43.3623 99.0859C43.7607 99.2161 44.1136 99.4062 44.4209 99.6562C44.7282 99.9036 44.9782 100.207 45.1709 100.566C45.3662 100.926 45.4912 101.337 45.5459 101.801ZM47.9873 107H46.1748L48.9365 99H51.1162L53.874 107H52.0615L50.0576 100.828H49.9951L47.9873 107ZM47.874 103.855H52.1553V105.176H47.874V103.855ZM54.8369 107V99H56.5283V105.605H59.958V107H54.8369ZM65.418 101.301C65.3867 100.986 65.2526 100.741 65.0156 100.566C64.7786 100.392 64.457 100.305 64.0508 100.305C63.7747 100.305 63.5417 100.344 63.3516 100.422C63.1615 100.497 63.0156 100.603 62.9141 100.738C62.8151 100.874 62.7656 101.027 62.7656 101.199C62.7604 101.342 62.7904 101.467 62.8555 101.574C62.9232 101.681 63.0156 101.773 63.1328 101.852C63.25 101.927 63.3854 101.993 63.5391 102.051C63.6927 102.105 63.8568 102.152 64.0313 102.191L64.75 102.363C65.099 102.441 65.4193 102.546 65.7109 102.676C66.0026 102.806 66.2552 102.966 66.4688 103.156C66.6823 103.346 66.8477 103.57 66.9648 103.828C67.0846 104.086 67.1458 104.382 67.1484 104.715C67.1458 105.204 67.0208 105.629 66.7734 105.988C66.5286 106.345 66.1745 106.622 65.7109 106.82C65.25 107.016 64.694 107.113 64.043 107.113C63.3971 107.113 62.8346 107.014 62.3555 106.816C61.8789 106.618 61.5065 106.326 61.2383 105.937C60.9727 105.547 60.8333 105.064 60.8203 104.488H62.457C62.4753 104.757 62.5521 104.98 62.6875 105.16C62.8255 105.337 63.0091 105.471 63.2383 105.562C63.4701 105.651 63.7318 105.695 64.0234 105.695C64.3099 105.695 64.5586 105.654 64.7695 105.57C64.9831 105.487 65.1484 105.371 65.2656 105.223C65.3828 105.074 65.4414 104.904 65.4414 104.711C65.4414 104.531 65.388 104.38 65.2812 104.258C65.1771 104.135 65.0234 104.031 64.8203 103.945C64.6198 103.859 64.3737 103.781 64.082 103.711L63.2109 103.492C62.5365 103.328 62.0039 103.072 61.6133 102.723C61.2227 102.374 61.0286 101.904 61.0313 101.312C61.0286 100.828 61.1576 100.405 61.418 100.043C61.681 99.681 62.0417 99.3984 62.5 99.1953C62.9583 98.9922 63.4792 98.8906 64.0625 98.8906C64.6563 98.8906 65.1745 98.9922 65.6172 99.1953C66.0625 99.3984 66.4089 99.681 66.6562 100.043C66.9036 100.405 67.0313 100.824 67.0391 101.301H65.418Z" fill="#1A1A1A"/>
</svg>
