<svg width="320" height="320" viewBox="-0.938 0 80 80" fill="none" xmlns="http://www.w3.org/2000/svg">
<path d="M36.5057 26.3339H45.0091C45.0091 26.3339 46.8313 26.3339 46.8313 28.156C46.8313 28.156 46.8313 29.9782 45.0091 29.9782H36.5057C36.5057 29.9782 34.6836 29.9782 34.6836 28.156C34.6836 28.156 34.6836 26.3339 36.5057 26.3339Z" stroke="black" stroke-width="1.91176" stroke-linecap="round" stroke-linejoin="round"/>
<path d="M48.0456 45.3243C48.0456 44.1686 47.7702 43.0295 47.242 42.0015C46.7139 40.9735 45.9482 40.0862 45.0087 39.4132V29.9781H36.5053V39.4132C35.5658 40.0865 34.8003 40.9739 34.2723 42.0019C33.7442 43.03 33.4688 44.1691 33.4688 45.3249C33.4688 46.4807 33.7442 47.6198 34.2723 48.6479C34.8003 49.6759 35.5658 50.5634 36.5053 51.2366V53.6661H45.0087V51.2366C45.9483 50.5633 46.7139 49.6758 47.242 48.6477C47.7702 47.6195 48.0456 46.4802 48.0456 45.3243Z" stroke="black" stroke-width="1.91176" stroke-linecap="round" stroke-linejoin="round"/>
<path d="M34.6836 53.6661H46.8313" stroke="black" stroke-width="1.91176" stroke-linecap="round" stroke-linejoin="round"/>
<path d="M34.3808 41.7456L31.0645 39.259" stroke="black" stroke-width="1.91176" stroke-linecap="round" stroke-linejoin="round"/>
<path d="M32.2344 37.6968L30.043 40.6196" stroke="black" stroke-width="1.91176" stroke-linecap="round" stroke-linejoin="round"/>
</svg>
