<svg width="320" height="320" viewBox="0 0 80 80" fill="none" xmlns="http://www.w3.org/2000/svg">
<path d="M35.3334 35.3329V35.3463M45.3342 44.667V44.6804M40.0004 40V40.0133M38.667 46.6672V46.6805M33.3332 42.6669V42.6802M40.0004 26.6656C37.3631 26.6656 34.7851 27.4476 32.5922 28.9128C30.3994 30.378 28.6903 32.4606 27.681 34.8971C26.6718 37.3337 26.4077 40.0148 26.9222 42.6014C27.4367 45.188 28.7067 47.564 30.5716 49.4288C32.4364 51.2937 34.8124 52.5637 37.399 53.0782C39.9856 53.5927 42.6667 53.3286 45.1033 52.3194C47.5398 51.3101 49.6224 49.601 51.0876 47.4082C52.5528 45.2153 53.3348 42.6373 53.3348 40C52.4081 40.2853 51.4211 40.3127 50.48 40.079C49.5389 39.8454 48.6793 39.3596 47.9937 38.6739C47.308 37.9883 46.8222 37.1287 46.5886 36.1876C46.3549 35.2465 46.3823 34.2595 46.6676 33.3328C45.7409 33.6181 44.7539 33.6455 43.8128 33.4118C42.8717 33.1782 42.0121 32.6924 41.3265 32.0067C40.6408 31.3211 40.155 30.4615 39.9214 29.5204C39.6877 28.5793 39.7151 27.5923 40.0004 26.6656Z" stroke="#1A1A1A" stroke-width="2" stroke-linecap="round"/>
</svg>
