<svg width="320" height="320" viewBox="0 -0.188 80 80" fill="none" xmlns="http://www.w3.org/2000/svg">
<path d="M40.0004 53.3344V48.0006M40.0004 48.0006C38.0003 50.0008 35.3334 52.0009 31.9998 52.0009C31.9998 50.0008 32.6665 47.3339 34.6667 45.3337C34.6667 45.3337 31.3331 46.0005 26.666 44.0003C27.3327 42.0001 31.3331 40 33.3332 40C31.3331 38.6665 27.9995 34.6662 27.9995 31.9993C31.3331 31.9993 35.3334 33.9995 37.3335 35.9997C37.3335 32.6661 38.0003 29.3325 40.0004 26.6656C42.0006 29.3325 42.6673 32.6661 42.6673 35.9997C44.6675 33.9995 48.6678 31.9993 52.0014 31.9993C52.0014 34.6662 48.6678 38.6665 46.6676 40C48.6678 40 52.6681 42.0001 53.3348 44.0003C48.6678 46.0005 45.3342 45.3337 45.3342 45.3337C47.3343 47.3339 48.0011 50.0008 48.0011 52.0009C44.6675 52.0009 42.0006 50.0008 40.0004 48.0006Z" stroke="#1A1A1A" stroke-width="2" stroke-linecap="round"/>
</svg>
