<svg width="320" height="320" viewBox="0 0 80 80" fill="none" xmlns="http://www.w3.org/2000/svg">
<path d="M48.0719 41.12L27.3898 48.2469C26.8414 48.4355 26.2405 48.3985 25.7192 48.1442C25.198 47.8899 24.7991 47.439 24.6102 46.8906L24.25 45.8567C23.2106 42.8398 23.4121 39.5336 24.8103 36.6654C26.2086 33.7972 28.6889 31.6019 31.7058 30.5624C34.7226 29.5229 38.0288 29.7245 40.897 31.1227C43.7653 32.5209 45.9606 35.0013 47 38.0181L48.0719 41.12Z" stroke="black" stroke-width="2" stroke-linecap="round" stroke-linejoin="round"/>
<path d="M48.0717 41.12L55.0119 43.6458C55.3885 43.7926 55.7171 44.0408 55.9612 44.3629C56.2053 44.685 56.3554 45.0685 56.3948 45.4707C56.4342 45.873 56.3615 46.2783 56.1845 46.6417C56.0076 47.005 55.7335 47.3123 55.3925 47.5294C52.7822 49.1406 49.7884 50.0242 46.7216 50.0886C43.6547 50.1529 40.6265 49.3957 37.9509 47.8954L34.3809 45.8333" stroke="black" stroke-width="2" stroke-linecap="round" stroke-linejoin="round"/>
</svg>
