<svg width="320" height="320" viewBox="0 0 80 80" fill="none" xmlns="http://www.w3.org/2000/svg">
<path d="M47.2498 43.2122L44.5469 39.5859L35.5015 39.5588L32.7771 43.1689L32.75 52.2144C32.7486 52.6941 32.9378 53.1549 33.2761 53.4952C33.6143 53.8355 34.0739 54.0274 34.5537 54.0289L45.4082 54.0613" stroke="black" stroke-width="2" stroke-linecap="round" stroke-linejoin="round"/>
<path d="M47.2229 43.1689L47.25 52.2143C47.2514 52.6941 47.0622 53.1548 46.7239 53.4951C46.3857 53.8354 45.9261 54.0273 45.4463 54.0289L40.019 54.0451" stroke="black" stroke-width="2" stroke-linecap="round" stroke-linejoin="round"/>
<path d="M46.3308 34.4895L33.7496 34.4518L33.7344 39.5538L46.3156 39.5914L46.3308 34.4895Z" stroke="black" stroke-width="2" stroke-linecap="round" stroke-linejoin="round"/>
<path d="M36.3711 34.4595L38.2818 27.2531C38.7436 25.5114 41.2103 25.4966 41.6929 27.2326L43.7082 34.4814" stroke="black" stroke-width="2" stroke-linecap="round" stroke-linejoin="round"/>
</svg>
