<svg width="320" height="320" viewBox="0 0 80 80" fill="none" xmlns="http://www.w3.org/2000/svg">
<path d="M41.0672 50.1323C41.4052 50.3858 41.7987 50.5554 42.2151 50.627C42.6316 50.6986 43.0591 50.6703 43.4625 50.5443C43.8658 50.4184 44.2335 50.1983 44.5351 49.9024C44.8367 49.6065 45.0637 49.2432 45.1973 48.8424C45.331 48.4416 45.3674 48.0148 45.3037 47.5971C45.2399 47.1794 45.0779 46.7829 44.8308 46.4401C44.5837 46.0974 44.2587 45.8183 43.8825 45.6257C43.5064 45.4332 43.0899 45.3328 42.6673 45.3328H26.666M47.3343 34.6672C47.6753 34.2127 48.1268 33.8529 48.6459 33.6219C49.1651 33.3909 49.7347 33.2965 50.3006 33.3475C50.8665 33.3985 51.41 33.5933 51.8795 33.9134C52.3489 34.2335 52.7288 34.6683 52.9829 35.1764C53.237 35.6846 53.357 36.2493 53.3314 36.8168C53.3059 37.3844 53.1357 37.936 52.8369 38.4193C52.5382 38.9026 52.1209 39.3015 51.6246 39.5781C51.1283 39.8548 50.5695 40 50.0012 40H26.666M37.0668 29.8677C37.4049 29.6142 37.7984 29.4446 38.2148 29.373C38.6313 29.3014 39.0588 29.3297 39.4622 29.4557C39.8655 29.5817 40.2331 29.8017 40.5348 30.0976C40.8364 30.3935 41.0634 30.7568 41.197 31.1576C41.3306 31.5584 41.3671 31.9853 41.3034 32.4029C41.2396 32.8206 41.0775 33.2171 40.8305 33.5599C40.5834 33.9026 40.2584 34.1818 39.8822 34.3743C39.5061 34.5668 39.0895 34.6672 38.667 34.6672H26.666" stroke="#1A1A1A" stroke-width="2" stroke-linecap="round"/>
</svg>
