<svg width="274" height="54" viewBox="0 0 274 54" fill="none" xmlns="http://www.w3.org/2000/svg">
<g clip-path="url(#clip0_7069_1949)">
<path d="M48.8774 31.6717C45.5976 32.0393 44.7226 29.163 45.1621 26.4427C44.8265 26.3591 44.7866 26.7705 44.5947 27.0258C42.9649 29.1871 40.1963 32.6701 37.0966 31.4281C36.4574 31.1722 35.8782 30.5133 35.6066 29.8819C35.5505 29.7461 35.2272 28.6713 35.2272 28.6034V27.2694L35.2115 27.2733C34.4763 28.1202 33.9453 29.163 33.3022 30.0974C29.0357 36.2855 22.3245 43.0523 14.0318 41.5942C8.03561 40.5397 5.52298 35.8455 5.77049 30.0733C6.25763 18.8324 16.9356 2.78181 28.3645 0.24505C32.8504 -0.749449 39.194 -0.00638101 39.5335 5.71367C39.8613 11.1902 34.8439 14.9016 30.2019 16.5157L29.5268 12.3412C31.3042 11.0549 33.2062 9.69279 34.3085 7.7515C37.0568 2.92212 32.6545 1.69976 28.8039 3.44518C23.0193 6.06949 17.5905 15.0138 15.4214 20.7782C13.9751 24.6131 11.7105 32.9384 16.5876 35.1833C23.6821 38.4547 32.7623 28.1045 35.9697 22.7397C37.7073 19.8353 38.782 16.6318 39.9685 13.476C40.8793 13.5642 41.7981 13.6158 42.7168 13.5759C42.9963 13.5642 45.042 13.1926 45.0577 13.5237C43.7152 16.1402 42.2572 18.8049 41.2469 21.5729C40.8356 22.6954 39.7092 25.5677 40.9192 26.4023C41.9457 27.1094 43.328 25.7232 43.9594 24.9919C46.4479 22.0876 47.7263 18.0012 49.0688 14.4941C49.6003 13.1079 49.5644 13.5473 50.8103 13.5754C51.9928 13.6034 53.1231 13.3756 54.2136 13.3795C54.3971 13.3795 54.6008 13.3475 54.7209 13.5232C53.4105 16.2356 51.8727 18.8723 50.8821 21.7284C50.4747 22.8985 49.1485 26.6818 51.4535 26.6296L48.8769 31.6711L48.8774 31.6717ZM50.1654 25.5475C50.7407 27.4052 52.7061 26.4343 53.7287 25.5756C56.7846 23.0068 57.5075 18.3172 58.7938 14.7298C60.056 11.2143 63.1399 4.21575 66.4518 2.33844C68.5727 1.13628 71.6847 1.38771 72.1202 4.24774C72.8992 9.32519 67.0669 15.2972 63.0844 17.7302C62.8004 17.9058 62.4249 17.9221 62.2453 18.2734C61.8497 20.1827 61.0426 22.3362 60.9949 24.2853C60.9512 25.9993 61.7537 27.3575 63.6237 26.4545C66.2121 25.2001 69.6317 18.8964 70.922 16.2799C71.2615 15.593 71.729 14.1591 72.1365 13.6354C72.38 13.3239 72.7555 13.5715 73.0872 13.5838C74.5851 13.6315 76.0628 13.4918 77.5529 13.3958C77.5607 13.5277 77.5608 13.6556 77.5293 13.783C77.3733 14.3981 76.7503 15.4611 76.4983 16.1559C75.6116 18.5928 74.3651 23.1225 74.7288 25.6474C74.9886 27.4692 76.7099 26.8019 77.6926 25.9909C78.3801 25.4235 80.8086 22.5797 80.8484 21.7923C80.5448 21.0414 80.1374 19.9549 80.1256 19.14C80.1177 18.5327 80.4455 17.0427 80.6688 16.4556C81.3159 14.7618 83.3734 12.2812 85.4028 13.1359C87.6079 14.067 86.2693 17.9614 85.5465 19.5833C85.2468 20.2506 84.8831 20.9415 84.4678 21.5448C84.4201 21.8445 85.2906 22.0163 85.5145 22.032C86.3457 22.096 87.6236 21.6363 88.2707 21.1093C88.8342 20.6542 88.9537 19.8948 89.2933 19.2836C91.0033 16.2036 94.3269 13.3155 98.0221 13.3155C104.262 13.3155 104.27 19.851 99.6917 22.5994C98.0181 23.6062 96.0005 23.9419 94.0912 23.4783C93.5637 23.3503 92.8806 22.7195 92.9087 23.6422C92.9648 25.5874 94.4908 26.9259 96.3642 27.0898C101.689 27.5494 105.124 22.0443 107.158 17.926C107.178 17.7302 106.443 17.2391 106.255 17.0191C104.254 14.6939 107.282 10.0323 109.982 10.9948C111.472 11.5263 111.1 13.1921 110.685 14.3701C110.41 15.1569 109.894 15.3646 111.277 15.4886C112.343 15.5846 113.693 15.281 114.668 14.8572C114.895 14.7573 115.395 14.3617 115.567 14.406L117.368 16.8546L117.336 17.0584C116.114 18.8161 114.672 20.6098 113.869 22.6112C113.337 23.9374 112.499 27.101 114.935 26.7138C117.109 26.3664 117.928 21.5886 119.733 20.8455C122.741 19.603 124.335 24.1652 124.467 26.3944C125.022 35.8657 114.668 40.0604 106.918 41.1306C96.5561 42.5685 96.7453 42.0937 86.2716 42.5769C74.974 43.1 59.3707 44.5104 50.1952 51.597C49.9033 51.8209 48.4217 53.183 48.2977 53.2027C48.186 53.219 48.1579 53.1909 48.1338 53.0871C44.7625 47.834 40.2799 43.2364 35.5622 39.1776C34.831 38.5462 33.9762 38.0349 33.3532 37.2963H103.175C108.859 36.9528 116.046 36.4253 120.005 31.7794C121.723 29.7663 123.229 25.5638 121.635 23.1589C120.401 21.2895 119.554 24.1136 119.086 24.9768C118.167 26.6706 116.929 28.728 115.451 29.9863C111.013 33.7611 106.778 30.9252 108.3 25.3208C108.868 23.2358 110.31 21.0902 111.676 19.4324C111.872 19.1927 112.267 18.9093 112.455 18.6214C112.519 18.5254 112.679 18.2897 112.459 18.2616C112.267 18.2336 111.472 18.4373 111.177 18.4497C110.398 18.4816 109.602 18.4497 108.827 18.3935C108.084 19.6159 107.529 20.9342 106.806 22.1684C105.081 25.1126 102.236 28.9312 99.1922 30.5531C94.5385 33.0338 88.2948 31.4601 87.8593 25.5677C87.8077 24.8808 87.8992 24.1815 87.9031 23.4985C86.2733 24.2853 84.7394 24.4851 82.9979 23.8779C81.8873 25.6598 80.6251 27.4052 79.1109 28.8672C76.2508 31.6313 71.2093 33.8683 70.2109 28.2201C69.7636 25.6951 70.2266 23.1589 70.5661 20.6463C70.3663 20.6025 70.3585 20.7423 70.2749 20.8579C68.0894 23.8818 66.6196 27.2492 63.6675 29.7944C59.8366 33.0978 55.6301 32.1751 55.8496 26.5746C55.8619 26.3147 56.0892 25.9993 55.8019 25.7956C54.0441 28.3722 50.6846 32.898 47.0456 31.4202L50.1654 25.5481V25.5475ZM69.6912 4.49524C69.3679 4.11585 68.9083 4.31958 68.5687 4.55922C67.6781 5.19453 66.3479 7.76721 65.8406 8.81783C64.8298 10.9073 64.0031 13.1758 63.3717 15.405C63.4357 15.4729 63.9313 15.0654 64.0149 14.9936C66.0443 13.2757 68.2892 10.2159 69.2759 7.74701C69.5677 7.01629 70.2429 5.14234 69.6912 4.49131V4.49524ZM99.3045 15.9045C98.5451 15.1777 97.1151 15.7647 96.3962 16.2923C94.914 17.3828 93.6636 19.608 93.264 21.3894C95.5134 21.7368 97.9861 20.7821 99.1367 18.7527C99.5357 18.0495 99.9634 16.5319 99.3045 15.9045Z" fill="#F1E8D6"/>
<path d="M141.928 26.7434C139.544 26.7434 137.511 25.2126 137.511 22.2514C137.511 19.2901 139.582 17.7593 141.928 17.7593C144.124 17.7593 145.655 18.9388 145.906 20.7582L143.936 21.1723C143.735 20.1183 142.932 19.4533 141.916 19.4533C140.586 19.4533 139.506 20.4194 139.506 22.2514C139.506 24.0833 140.573 25.037 141.916 25.037C142.945 25.037 143.685 24.4472 143.886 23.5062L145.881 23.9579C145.467 25.702 143.999 26.7434 141.928 26.7434ZM153.515 20.4571L152.549 23.1799H154.481L153.515 20.4571ZM149.249 26.6431L152.574 17.8597H154.443L157.769 26.6431H155.723L155.083 24.8362H151.946L151.306 26.6431H149.249ZM161.721 26.6431V17.8597H163.691L167.104 23.5062V17.8597H168.949V26.6431H166.979L163.566 20.9966V26.6431H161.721ZM173.712 26.6431V17.8597H175.682L179.095 23.5062V17.8597H180.939V26.6431H178.969L175.556 20.9966V26.6431H173.712ZM189.253 20.4571L188.287 23.1799H190.219L189.253 20.4571ZM184.987 26.6431L188.312 17.8597H190.181L193.507 26.6431H191.461L190.821 24.8362H187.685L187.045 26.6431H184.987ZM197.459 26.6431V17.8597H201.036C202.617 17.8597 203.834 18.6502 203.834 20.1183C203.834 20.9464 203.319 21.5738 202.817 21.8499C203.608 22.1636 204.285 22.8788 204.285 24.0206C204.285 25.6894 202.98 26.6431 201.123 26.6431H197.459ZM199.442 24.9366H200.96C201.977 24.9366 202.416 24.5853 202.416 23.9077C202.416 23.2176 201.977 22.8411 200.96 22.8411H199.442V24.9366ZM199.442 21.1848H200.872C201.663 21.1848 202.014 20.8461 202.014 20.3065C202.014 19.7544 201.663 19.4156 200.835 19.4156H199.442V21.1848ZM208.641 26.6431V17.8597H210.624V26.6431H208.641ZM218.31 26.7434C216.554 26.7434 215.073 25.5514 214.91 23.9453L216.642 23.4309C216.755 24.4096 217.52 25.0621 218.386 25.0621C219.176 25.0621 219.691 24.6856 219.691 24.1335C219.691 22.4772 215.186 23.456 215.186 20.2312C215.186 18.7882 216.566 17.7593 218.285 17.7593C219.979 17.7593 221.347 18.6628 221.648 20.0054L219.879 20.7457C219.703 19.9552 219.113 19.4407 218.285 19.4407C217.595 19.4407 217.169 19.7293 217.169 20.2187C217.169 21.6115 221.686 20.4947 221.686 24.0833C221.686 25.6769 220.331 26.7434 218.31 26.7434ZM236.239 26.7434C233.855 26.7434 231.823 25.2126 231.823 22.2514C231.823 19.2901 233.893 17.7593 236.239 17.7593C238.435 17.7593 239.966 18.9388 240.217 20.7582L238.247 21.1723C238.046 20.1183 237.243 19.4533 236.227 19.4533C234.897 19.4533 233.818 20.4194 233.818 22.2514C233.818 24.0833 234.884 25.037 236.227 25.037C237.256 25.037 237.996 24.4472 238.197 23.5062L240.192 23.9579C239.778 25.702 238.31 26.7434 236.239 26.7434ZM244.422 26.6431V17.8597H246.405V24.9366H250.345V26.6431H244.422ZM257.598 26.7434C255.515 26.7434 254.072 25.6267 254.072 23.3807V17.8597H255.917V23.3681C255.917 24.51 256.619 25.0244 257.598 25.0244C258.577 25.0244 259.279 24.51 259.279 23.3681V17.8597H261.124V23.3807C261.124 25.6267 259.681 26.7434 257.598 26.7434ZM265.891 26.6431V17.8597H269.467C271.048 17.8597 272.265 18.6502 272.265 20.1183C272.265 20.9464 271.751 21.5738 271.249 21.8499C272.039 22.1636 272.717 22.8788 272.717 24.0206C272.717 25.6894 271.412 26.6431 269.555 26.6431H265.891ZM267.873 24.9366H269.392C270.408 24.9366 270.847 24.5853 270.847 23.9077C270.847 23.2176 270.408 22.8411 269.392 22.8411H267.873V24.9366ZM267.873 21.1848H269.304C270.094 21.1848 270.446 20.8461 270.446 20.3065C270.446 19.7544 270.094 19.4156 269.266 19.4156H267.873V21.1848Z" fill="#F1E8D6"/>
</g>
<defs>
<clipPath id="clip0_7069_1949">
<rect width="274" height="54" fill="white"/>
</clipPath>
</defs>
</svg>
